{"glyphs":{":":{"x_min":0,"x_max":218,"ha":218,"o":"m 43 403 q 43 431 60 459 q 73 480 87 488 q 101 497 117 497 q 154 497 171 434 q 175 418 175 403 q 175 341 123 334 q 119 333 116 333 q 111 333 109 333 q 79 333 61 352 q 43 371 43 403 z m 43 58 q 43 86 60 114 q 73 135 87 144 q 101 152 117 152 q 138 152 150 138 q 162 124 171 87 q 175 74 174 62 q 174 25 163 9 q 152 -7 122 -11 l 107 -12 q 77 -12 60 7 q 43 26 43 58 z"},"$":{"x_min":0,"x_max":620,"ha":620,"o":"m 287 811 l 291 915 q 293 932 321 929 q 343 925 343 913 l 344 815 q 350 816 361 816 q 389 816 431 797 l 451 788 l 455 786 q 467 777 476 766 l 481 780 l 484 788 l 489 805 q 497 820 517 820 q 532 820 548 810 q 563 800 570 778 q 576 755 576 700 l 576 673 l 576 628 l 577 588 q 577 579 577 574 q 577 553 573 530 q 569 506 542 506 q 538 506 528 508 q 517 513 509 521 q 498 533 484 556 l 480 564 l 475 634 q 475 687 454 708 q 434 728 374 738 l 345 740 q 345 665 346 589 q 347 513 348 438 l 345 358 l 403 332 l 411 328 l 444 312 q 480 295 500 282 q 520 269 535 254 q 573 213 573 177 q 573 132 516 68 q 480 27 436 8 q 393 -12 345 -12 l 344 -172 q 344 -189 318 -189 q 304 -189 297 -184 q 290 -179 290 -171 l 292 -16 q 286 -17 275 -17 q 264 -17 257 -16 q 250 -15 236 -12 q 221 -9 215 -7 q 202 -1 197 1 q 171 14 157 14 q 135 14 131 -34 q 129 -41 119 -41 q 113 -41 109 -40 q 103 -40 86 -30 q 68 -19 64 -13 q 60 -7 57 19 l 53 49 l 53 56 q 52 64 52 87 l 52 144 q 52 163 52 180 q 52 196 52 204 q 52 216 52 229 q 50 240 50 244 q 49 253 60 258 q 70 262 80 260 l 104 252 q 130 239 133 227 l 133 212 q 132 201 144 164 q 155 127 172 110 q 190 92 221 88 l 235 86 l 249 84 l 271 83 l 287 83 l 287 169 l 287 260 l 277 266 l 273 269 l 185 318 l 143 346 q 119 363 107 374 q 95 385 85 398 q 42 454 42 518 q 42 532 42 546 q 45 558 46 564 l 52 588 q 59 613 74 640 q 89 668 115 702 q 141 735 173 758 l 191 771 q 230 796 250 804 q 269 811 287 811 z m 257 710 q 226 692 210 676 q 195 660 177 627 q 165 604 159 589 q 153 574 152 560 q 150 545 148 526 q 146 508 146 500 q 146 481 154 470 q 161 459 182 439 q 195 428 218 416 q 242 403 277 389 l 291 384 l 292 592 l 291 660 l 291 729 l 280 723 z m 340 158 l 341 123 l 343 88 q 375 88 393 102 q 443 133 443 148 q 443 156 433 181 q 428 191 418 197 q 408 203 376 215 l 340 229 l 340 193 z"},"?":{"x_min":0,"x_max":641,"ha":641,"o":"m 7 511 q 5 519 10 542 q 15 566 27 579 q 50 600 71 619 q 114 660 185 701 l 237 730 q 274 748 302 758 q 331 769 349 773 q 413 787 441 787 q 460 787 486 781 q 550 766 583 736 q 633 690 633 633 q 633 608 626 587 q 618 566 596 534 q 581 512 551 490 q 516 464 433 414 q 377 379 351 359 q 277 301 252 275 q 226 249 211 218 l 206 209 q 200 193 184 193 q 179 193 174 196 l 162 207 q 146 228 146 247 q 146 271 174 321 q 193 356 230 393 q 251 414 291 444 q 322 467 358 492 l 413 529 l 427 540 q 490 591 509 619 q 515 628 520 636 q 524 643 526 648 q 534 667 534 678 q 534 712 465 712 q 419 712 378 698 q 338 685 255 637 l 213 610 l 208 607 l 113 535 l 95 522 l 90 519 q 85 515 77 506 q 69 498 59 486 q 54 481 40 481 q 11 481 7 511 z m 120 53 q 120 70 123 82 q 126 93 136 108 q 150 130 164 139 q 179 148 196 146 q 231 146 248 80 l 251 58 q 251 17 240 2 q 230 -12 199 -17 q 195 -18 187 -18 q 156 -18 138 1 q 120 20 120 53 z"},"a":{"x_min":0,"x_max":528,"ha":528,"o":"m 29 92 q 29 112 34 126 q 39 140 60 175 q 66 186 78 197 q 89 208 115 227 q 126 236 142 244 q 158 252 171 258 q 204 274 228 284 q 253 293 267 296 q 306 304 346 312 q 364 317 364 329 q 361 349 359 367 q 354 409 344 426 q 335 444 314 444 q 296 444 262 430 q 236 419 206 397 q 175 375 125 328 q 109 312 77 308 q 62 306 54 316 q 46 325 48 344 q 48 364 69 392 q 90 420 142 468 q 159 484 180 495 q 234 525 276 525 q 306 525 343 509 q 410 481 434 427 q 458 373 458 243 q 458 232 458 226 q 458 219 457 211 q 456 203 456 199 q 450 140 450 120 q 450 97 459 92 q 461 91 465 90 q 471 89 500 89 q 507 89 515 84 q 523 78 530 67 q 536 56 536 48 q 536 24 473 -4 q 435 -20 411 -20 q 378 -20 367 10 l 362 27 q 356 29 348 28 l 299 6 q 293 3 281 0 q 253 -8 216 -13 q 195 -15 186 -16 q 177 -17 169 -17 q 152 -17 140 -14 q 127 -12 113 -6 l 109 -4 l 97 3 l 80 9 q 68 14 50 34 q 29 57 29 92 z m 346 120 q 372 143 372 168 q 372 189 362 200 q 353 212 342 209 l 291 191 l 238 169 l 233 167 l 209 154 q 169 130 152 116 q 136 101 125 80 q 133 75 142 72 q 152 69 165 69 q 181 69 226 76 q 272 84 302 96 q 331 107 346 120 z"},"L":{"x_min":0,"x_max":525,"ha":525,"o":"m 0 684 q 0 707 14 716 q 27 725 81 735 l 111 739 l 120 739 l 148 739 l 152 739 l 186 742 l 195 742 q 248 742 267 732 q 286 722 296 690 q 298 683 300 674 q 303 664 303 657 q 303 642 292 635 q 280 628 245 621 q 226 618 211 619 q 204 619 200 566 q 196 513 196 433 l 191 275 l 191 255 q 191 141 194 128 q 198 116 234 116 l 323 122 l 363 126 l 368 126 l 381 126 l 392 126 q 408 126 412 130 q 417 135 419 157 l 430 259 q 434 295 436 304 q 438 314 446 332 q 453 351 468 351 q 480 351 496 338 q 512 324 518 313 q 525 302 525 282 q 525 270 523 254 q 521 238 520 226 q 516 189 515 166 q 514 144 514 119 q 514 97 514 89 q 514 40 479 33 q 465 30 382 20 l 363 17 l 267 3 l 173 -13 l 139 -21 l 136 -22 q 133 -23 124 -23 q 117 -23 106 -19 q 95 -15 81 -4 l 73 3 l 58 17 q 33 39 36 60 q 38 73 48 82 q 57 91 85 103 q 87 104 87 118 q 87 132 87 154 l 83 256 l 83 266 l 85 411 q 85 424 85 431 q 85 442 85 448 q 85 458 85 463 q 85 472 85 476 q 85 483 85 487 q 85 504 84 521 q 84 538 84 556 q 84 563 84 566 l 86 591 q 86 613 84 616 q 81 621 62 627 l 44 632 q 25 638 14 652 q 2 666 0 684 z"},"3":{"x_min":0,"x_max":695,"ha":695,"o":"m 407 363 q 415 355 423 352 l 444 347 q 452 346 462 341 q 473 336 498 320 l 529 299 q 598 245 598 178 q 598 104 515 54 q 504 48 495 43 q 486 38 472 32 q 431 12 400 4 q 370 -4 314 -10 l 252 -15 q 206 -15 186 -12 q 166 -9 148 1 q 129 11 117 24 q 105 36 99 50 q 90 67 89 80 q 89 105 109 102 q 117 100 122 97 q 127 94 138 80 q 141 77 149 75 q 157 73 176 73 l 206 74 l 215 74 q 234 74 244 76 q 255 77 281 82 l 292 84 l 307 88 l 313 89 l 337 92 q 350 93 360 97 q 363 98 393 111 l 415 120 q 446 135 475 164 l 485 175 q 506 199 506 213 q 506 231 464 252 q 428 269 370 269 q 350 269 331 269 q 312 266 303 265 l 267 260 q 257 258 238 266 q 205 279 199 322 q 198 329 198 339 q 198 354 205 361 q 212 368 233 376 q 273 391 313 415 q 353 439 423 492 l 446 509 l 468 526 q 487 541 498 554 q 510 566 516 576 q 528 599 528 611 q 528 634 491 634 q 465 634 458 633 q 450 632 423 627 q 396 622 369 613 q 342 604 293 584 l 246 564 l 243 563 q 197 541 154 504 q 138 490 128 482 q 117 475 111 472 q 105 469 99 469 q 76 469 71 496 q 68 516 79 544 q 85 560 104 576 q 123 592 190 639 l 209 652 l 250 678 l 253 680 l 264 686 l 277 693 l 291 700 l 304 705 l 317 710 l 330 715 l 342 718 l 357 722 q 381 728 403 728 q 418 728 448 724 q 477 721 541 687 q 578 668 596 647 q 611 629 618 613 q 625 597 625 575 q 624 566 624 562 q 624 533 604 508 q 585 482 529 439 l 508 424 l 430 377 l 426 375 z"},";":{"x_min":0,"x_max":223,"ha":223,"o":"m 46 403 q 46 431 63 459 q 89 500 123 497 q 143 495 154 482 q 166 469 174 434 q 177 424 178 413 q 178 402 179 396 q 179 340 126 334 q 121 333 112 333 q 82 333 64 352 q 46 371 46 403 z m -7 -89 q -8 -86 -8 -79 q -8 -72 -5 -64 l -3 -58 l 20 -9 l 25 3 l 34 23 l 56 62 q 70 85 80 104 q 89 124 95 143 q 97 150 109 150 q 114 150 124 145 l 133 138 q 158 113 168 100 q 179 87 179 77 q 179 64 148 11 l 135 -12 l 113 -51 q 73 -124 37 -124 q 20 -124 4 -105 q -5 -95 -7 -89 z"},"J":{"x_min":0,"x_max":474,"ha":474,"o":"m 0 195 l 0 235 q 0 280 35 280 q 42 279 48 275 q 53 271 66 256 q 80 241 82 236 q 84 231 90 201 l 98 178 q 101 170 98 158 l 106 129 l 117 102 q 125 84 132 74 q 138 65 151 55 l 166 45 q 177 38 192 38 q 217 38 240 58 q 262 79 270 114 q 277 149 277 203 q 277 230 276 256 q 276 281 276 305 q 276 318 276 325 l 274 382 q 274 461 272 486 q 270 510 268 538 q 268 557 268 568 q 268 579 268 584 q 268 609 262 614 q 257 618 231 618 q 212 618 204 622 q 197 626 175 646 q 170 652 162 654 q 159 657 159 671 q 159 679 160 688 q 162 697 188 708 q 214 719 245 727 q 250 729 260 731 q 269 733 277 734 l 295 737 l 309 739 l 340 747 l 374 749 l 390 752 q 394 753 401 753 q 420 753 438 724 q 452 704 452 686 q 452 652 407 643 l 398 642 q 388 640 384 632 q 379 624 379 610 q 379 597 382 562 l 384 486 l 385 405 q 385 388 385 376 q 385 365 385 358 q 385 334 385 323 q 385 230 378 149 l 376 131 l 374 115 l 367 84 q 354 38 332 14 q 310 -9 262 -26 q 236 -35 210 -35 l 193 -34 q 175 -34 162 -29 q 148 -24 134 -14 l 117 -2 l 115 0 q 112 4 107 2 q 98 -1 98 -17 l 89 -29 q 75 -45 61 -45 q 47 -45 30 -32 q 21 -24 16 -12 q 11 0 7 31 l 5 55 l 5 62 l 5 82 l 2 119 l 1 124 z"},"V":{"x_min":0,"x_max":711,"ha":711,"o":"m -14 675 q -11 681 6 687 l 24 694 l 28 695 l 32 696 l 94 705 l 126 711 l 158 716 q 218 725 240 725 q 264 725 275 711 q 293 685 293 667 q 293 641 246 618 l 226 611 q 196 603 196 590 q 196 581 224 497 l 256 372 l 258 363 q 302 224 314 190 q 326 156 331 150 q 334 147 337 147 q 341 149 342 152 q 347 163 348 166 q 350 172 352 181 l 378 247 l 394 286 l 447 409 l 515 566 l 516 569 q 545 617 552 630 q 558 644 554 649 l 532 660 l 524 664 q 515 672 512 677 q 503 692 495 705 q 483 726 483 735 q 483 748 533 760 l 634 781 l 653 782 q 684 782 704 762 q 725 743 725 716 q 725 705 721 697 q 710 674 688 672 q 665 669 661 665 q 657 662 646 639 l 620 584 l 618 581 l 555 428 l 493 274 l 462 196 l 449 166 l 427 114 l 422 103 q 420 97 416 87 q 408 64 399 32 l 384 -12 q 374 -30 362 -30 q 357 -30 334 -23 l 304 -11 q 272 1 264 15 q 255 29 216 131 l 182 226 l 168 271 l 163 287 l 133 387 l 104 486 q 96 526 89 567 q 83 593 59 596 l 52 596 l 39 597 q 13 597 -2 628 l -6 636 q -14 659 -15 667 q -14 674 -14 675 z"},"7":{"x_min":0,"x_max":695,"ha":695,"o":"m 485 632 l 461 633 l 457 632 l 435 629 l 409 628 l 390 625 q 351 616 315 616 q 232 616 209 598 q 186 580 186 514 q 186 469 180 445 q 174 421 150 421 q 137 421 121 432 q 114 438 111 451 q 108 464 108 493 l 111 601 q 111 649 131 662 q 151 675 249 693 q 267 697 288 702 q 310 707 373 723 q 409 732 445 741 q 464 745 486 745 l 499 745 l 525 745 q 555 745 564 739 q 573 733 596 701 l 608 680 q 618 660 618 656 q 618 646 598 615 q 574 580 557 553 l 544 533 l 490 453 l 417 345 q 387 300 364 263 q 335 216 307 168 l 281 124 l 279 119 l 272 109 q 270 107 269 105 q 268 103 268 99 q 267 96 270 93 q 270 92 273 91 l 295 89 q 322 89 338 64 q 349 47 349 35 q 349 14 321 8 l 293 1 q 270 -3 254 -6 q 238 -8 220 -8 l 202 -9 l 173 -11 l 125 -14 q 120 -15 114 -10 q 107 -6 92 11 q 78 28 78 42 q 78 61 108 75 l 150 82 q 170 86 182 104 q 194 121 237 213 l 308 339 l 380 465 q 427 545 457 588 l 468 603 l 473 609 z"},"S":{"x_min":0,"x_max":620,"ha":620,"o":"m 476 766 l 481 780 l 484 788 l 489 805 q 497 820 517 820 q 532 820 548 810 q 563 800 570 778 q 576 755 576 700 l 576 673 l 576 628 l 577 588 q 577 579 577 574 q 577 553 573 530 q 569 506 542 506 q 538 506 528 508 q 517 513 509 521 q 498 533 484 556 l 480 564 l 475 634 q 475 731 395 731 q 362 731 318 710 l 288 694 q 252 673 228 651 q 204 629 179 595 q 143 545 143 513 q 143 479 178 449 q 214 419 299 380 l 368 348 l 403 332 l 409 329 l 444 312 q 480 295 500 282 q 520 269 535 254 q 573 213 573 177 q 573 132 517 69 q 485 33 454 16 q 424 -2 373 -12 q 353 -16 344 -17 q 334 -18 322 -18 q 314 -18 304 -18 q 294 -17 282 -17 q 254 -17 246 -16 q 238 -14 216 -7 l 197 1 q 171 14 157 14 q 135 14 131 -34 q 129 -41 119 -41 q 113 -41 109 -40 q 103 -40 86 -30 q 68 -19 64 -13 q 60 -7 57 19 l 53 49 l 53 56 q 52 64 52 87 l 52 144 q 52 163 52 180 q 52 196 52 204 q 52 216 52 229 q 50 240 50 244 q 49 253 60 258 q 70 262 80 260 l 104 252 q 130 239 133 227 l 133 212 q 132 201 142 168 q 157 121 178 104 q 198 88 251 83 q 261 82 268 82 q 276 81 281 81 q 311 81 333 88 l 338 89 l 359 96 l 375 102 q 402 113 413 118 q 424 124 430 128 q 442 137 442 149 q 442 158 434 166 q 426 172 418 178 q 410 185 401 190 l 362 215 l 359 217 l 343 226 l 315 241 l 311 243 l 273 269 q 265 274 242 287 q 213 303 185 318 l 143 346 q 101 376 85 398 q 42 454 42 518 q 42 532 42 546 q 45 558 46 564 l 52 588 q 59 613 74 640 q 89 668 116 702 q 131 722 149 738 q 196 780 243 799 q 296 822 326 822 q 345 822 366 817 q 373 815 399 808 q 437 796 451 788 q 465 780 476 766 z"},"Z":{"x_min":0,"x_max":606,"ha":606,"o":"m 421 661 q 387 661 371 658 q 334 649 297 641 l 180 624 l 166 622 l 162 621 q 153 618 150 610 q 146 602 143 579 l 135 513 l 134 504 l 127 453 q 124 428 120 421 q 115 414 99 414 q 78 414 65 424 q 41 441 41 494 l 44 528 l 49 592 q 49 664 61 684 q 73 704 116 714 l 183 730 l 201 734 l 266 749 l 329 762 q 376 772 408 772 q 440 772 477 756 q 514 741 538 714 q 573 676 573 652 q 573 636 563 619 l 553 605 l 504 550 q 477 521 416 445 l 329 337 l 292 290 q 225 204 200 168 q 174 132 146 86 l 143 81 l 138 70 q 136 64 136 60 q 136 44 153 44 q 163 44 195 51 q 227 58 297 74 q 309 77 346 83 q 382 89 409 92 l 425 97 q 443 104 445 126 l 448 143 l 449 154 l 450 195 q 450 205 452 216 q 453 227 458 248 q 463 270 468 286 q 474 301 480 309 q 495 331 508 331 q 520 331 538 313 q 553 299 557 292 q 561 286 561 269 q 561 251 552 174 l 550 162 l 543 102 l 539 69 l 538 65 l 534 50 q 521 22 492 8 q 463 -5 391 -5 l 333 -13 l 213 -40 l 204 -42 l 153 -53 q 138 -56 125 -58 q 112 -61 104 -61 q 92 -61 74 -52 l 63 -47 l 58 -43 q 29 -25 18 17 q 15 29 15 40 q 15 58 28 86 q 41 115 77 182 l 93 212 q 137 286 152 308 q 164 325 233 415 l 301 506 q 336 551 368 586 q 392 613 404 628 q 416 643 421 661 z"},"x":{"x_min":0,"x_max":558,"ha":558,"o":"m 269 313 l 293 335 q 337 377 350 394 q 364 410 366 421 l 365 423 l 344 430 q 325 436 325 455 q 325 464 330 477 q 334 490 351 494 q 368 499 437 508 l 456 511 l 470 512 l 485 513 q 535 513 544 492 q 552 471 552 454 q 552 420 495 420 l 489 420 q 485 417 481 414 q 468 402 442 376 l 416 348 q 387 317 358 286 q 330 256 330 247 q 330 241 334 236 l 346 226 l 405 143 l 410 136 l 436 103 q 453 81 463 76 q 473 71 514 65 l 530 64 q 533 63 534 62 q 539 58 548 48 q 556 39 556 25 q 556 8 542 -2 q 529 -13 512 -13 q 474 -13 438 -14 q 401 -14 365 -15 q 340 -15 332 -9 q 324 -3 320 8 q 316 18 316 27 q 316 41 322 47 l 334 56 q 338 59 341 60 q 344 61 344 63 q 344 65 306 118 l 262 179 l 259 178 q 253 175 239 155 q 216 123 197 96 l 186 79 q 183 76 188 69 q 193 62 203 59 l 224 55 q 229 54 232 48 q 235 41 235 25 q 235 -3 208 -10 q 182 -16 79 -16 q 38 -16 28 -12 q 17 -8 4 10 q -4 23 -4 33 q -4 57 43 69 l 70 73 l 79 74 q 87 74 97 88 q 112 109 136 156 q 151 183 177 212 l 200 237 l 202 240 q 204 250 203 251 q 197 264 151 336 q 123 379 116 392 q 108 405 106 412 l 83 411 q 66 409 48 420 l 37 429 q 17 449 17 467 q 17 485 42 497 q 67 509 85 512 q 103 515 150 515 l 180 519 q 195 522 206 522 q 233 522 244 492 l 245 488 q 247 470 247 467 q 247 453 238 448 q 230 442 206 439 q 207 429 212 415 q 216 401 227 381 q 229 378 250 343 z"},")":{"x_min":0,"x_max":300,"ha":300,"o":"m -14 -86 l 4 -75 q 5 -74 12 -66 q 24 -52 32 -38 q 41 -25 54 0 q 66 25 78 58 q 91 92 104 148 q 116 203 125 280 q 131 325 131 365 q 131 438 124 492 q 117 547 98 607 l 85 644 q 63 698 49 718 q 35 739 2 766 l -3 773 q -6 781 0 788 q 5 794 22 803 q 31 808 53 808 q 65 808 82 806 q 100 803 116 791 q 131 779 155 741 l 173 711 l 175 708 l 184 691 q 199 659 210 632 q 220 604 225 584 l 228 566 l 244 501 q 248 483 250 464 q 252 445 252 403 l 254 365 l 254 356 q 254 295 236 219 q 219 143 178 61 q 154 14 138 -12 q 122 -39 106 -59 l 104 -61 l 77 -91 q 44 -127 23 -127 q 15 -127 7 -124 q -18 -117 -18 -98 q -18 -91 -14 -86 z"},"&":{"x_min":0,"x_max":889,"ha":889,"o":"m 614 303 q 605 304 592 304 q 585 304 574 303 q 562 302 542 299 l 526 299 q 496 299 478 306 q 461 314 450 328 q 439 342 439 352 q 439 366 460 372 l 469 374 l 535 393 l 634 420 l 642 422 q 696 433 757 439 l 815 444 q 855 444 867 442 q 879 441 885 433 q 902 412 902 393 q 902 365 861 347 q 843 341 835 340 q 761 330 742 328 q 722 326 721 326 l 722 302 l 721 283 q 721 255 716 240 q 712 224 702 207 q 686 180 682 174 q 678 168 676 166 q 674 164 681 158 q 693 148 723 127 l 741 116 q 762 104 768 98 q 773 91 773 77 q 773 42 731 42 q 720 42 713 43 l 702 46 q 679 51 665 57 q 645 69 631 76 l 610 90 q 605 93 591 88 l 547 59 q 516 39 475 22 q 461 16 444 10 q 426 5 406 0 q 339 -16 293 -16 q 269 -16 245 -12 q 221 -7 194 3 l 176 10 l 151 20 q 94 43 62 87 q 37 122 34 140 q 30 158 29 166 q 28 174 28 183 q 28 213 56 266 q 66 285 78 300 q 91 316 117 341 l 160 378 l 182 394 q 206 411 206 418 q 206 424 197 438 q 182 460 171 477 l 155 506 q 134 554 134 602 q 134 698 214 775 q 251 811 289 826 q 327 840 380 840 q 404 840 430 832 q 456 824 491 806 l 512 794 l 522 788 l 535 779 l 538 778 l 560 767 q 572 762 585 750 q 598 738 607 718 q 624 676 624 654 q 624 626 601 587 q 592 570 578 556 q 565 541 535 514 q 520 500 505 489 q 481 471 469 462 l 425 433 l 393 412 q 371 396 371 384 q 371 369 410 343 q 429 330 452 312 q 476 294 498 275 q 514 261 524 254 q 535 246 549 237 q 557 232 565 232 q 578 232 591 248 q 604 263 612 295 z m 261 516 q 269 503 278 490 q 287 476 295 476 q 301 476 339 502 l 410 555 q 438 578 457 597 q 476 616 486 630 q 503 654 510 670 q 518 686 518 699 q 518 723 485 752 q 465 769 421 769 l 387 764 q 349 756 325 742 q 301 727 275 697 q 253 671 244 648 q 234 626 234 605 q 234 597 238 582 q 241 566 250 539 q 253 527 261 516 z m 289 68 q 331 74 363 87 l 443 131 q 459 140 460 141 q 465 144 477 154 q 483 158 478 166 q 473 174 463 182 q 420 213 400 229 q 379 245 359 263 q 290 326 281 326 q 274 326 258 311 q 248 301 234 289 l 186 246 q 156 218 144 190 q 131 161 131 135 q 131 129 134 121 q 136 116 141 107 q 153 87 178 76 q 202 64 241 64 q 251 64 266 66 q 280 67 289 68 z"},"_":{"x_min":0,"x_max":562,"ha":562,"o":"m -7 0 l -7 36 l 569 36 l 569 0 z"},"v":{"x_min":0,"x_max":576,"ha":576,"o":"m 265 116 l 297 170 l 303 181 l 323 225 q 352 287 386 333 q 413 371 413 385 q 413 395 401 400 l 383 402 q 375 403 368 414 q 362 426 359 438 q 356 451 356 454 q 356 472 379 481 q 402 490 464 498 q 475 500 486 500 q 497 500 503 500 q 547 500 568 497 q 590 494 590 470 q 590 465 588 450 q 586 435 574 425 q 562 415 536 406 q 510 398 502 390 q 495 382 479 348 l 435 256 l 371 120 q 339 36 328 14 q 318 -9 310 -15 l 293 -22 q 275 -28 260 -28 q 230 -28 209 4 l 196 25 l 192 32 q 178 59 160 102 q 139 153 109 236 l 96 276 q 85 314 82 322 q 76 340 67 345 l 39 349 q 18 352 8 367 q -9 393 -9 408 q -9 428 26 437 l 61 445 l 102 453 q 129 456 146 458 q 164 460 176 460 q 210 460 227 445 l 237 435 q 249 420 249 405 q 249 381 219 370 q 210 367 198 364 q 185 362 182 362 q 181 354 180 347 q 183 325 199 272 l 219 210 l 241 151 l 243 147 l 253 130 z"},"O":{"x_min":0,"x_max":728,"ha":728,"o":"m 29 319 q 29 370 46 438 q 59 490 78 530 q 118 609 168 654 q 218 699 260 720 q 302 741 348 741 q 394 741 429 734 q 464 727 510 705 q 534 695 555 678 q 633 623 666 546 q 698 468 698 352 q 698 299 684 254 q 670 209 641 156 q 601 85 558 50 q 514 15 441 -5 q 412 -12 390 -14 q 368 -17 338 -17 l 298 -17 q 275 -15 264 -12 q 253 -9 231 -2 l 198 11 q 163 27 142 44 q 120 62 97 93 q 82 113 72 134 q 62 155 47 195 q 39 218 34 240 q 30 263 30 296 z m 314 52 q 322 50 339 50 q 424 50 497 131 q 579 222 579 356 l 579 422 q 579 431 579 436 q 579 456 576 474 q 567 533 552 565 q 538 597 514 619 q 498 634 478 643 q 448 658 405 658 q 363 658 338 649 q 314 640 278 609 q 234 572 208 521 q 182 470 167 384 q 162 354 160 322 q 159 291 159 273 q 159 244 164 219 q 170 194 180 168 q 202 113 231 88 q 260 63 314 52 z"},"(":{"x_min":0,"x_max":300,"ha":300,"o":"m 43 325 q 43 386 61 463 q 72 508 83 538 q 94 569 118 618 q 143 667 158 692 q 173 717 191 740 l 220 772 q 252 807 274 807 q 281 807 298 802 q 315 798 315 778 q 315 775 314 772 q 312 768 311 767 l 293 756 q 289 752 280 742 q 272 731 264 718 q 256 706 244 681 q 231 656 220 626 q 205 587 193 532 q 181 478 174 417 q 166 356 166 315 q 166 242 173 188 q 180 134 199 74 l 212 37 q 232 -14 247 -36 q 262 -58 295 -85 l 300 -92 q 303 -100 298 -107 q 293 -114 275 -122 q 266 -127 244 -127 q 232 -127 214 -125 q 197 -123 181 -110 q 165 -98 142 -60 l 124 -30 l 122 -28 l 113 -10 q 99 19 89 45 q 76 77 72 96 l 71 99 l 69 115 l 53 179 q 50 196 48 216 q 45 237 45 278 l 43 317 z"},"C":{"x_min":0,"x_max":650,"ha":650,"o":"m 29 260 q 29 295 40 353 l 54 409 q 68 456 82 486 q 95 516 119 555 q 156 615 197 662 q 235 705 270 729 q 325 766 354 770 q 382 773 390 773 q 400 773 411 771 q 422 769 430 766 q 466 753 479 747 q 492 741 495 738 q 498 740 499 742 l 503 774 q 503 789 511 796 q 519 803 529 801 q 543 798 554 791 q 585 773 592 754 q 599 735 599 681 l 599 668 l 598 608 l 597 574 l 596 559 l 594 538 l 594 506 l 592 482 q 589 459 561 459 q 549 459 539 464 q 514 476 506 509 l 500 565 q 500 585 497 597 q 494 609 486 624 q 456 680 431 680 q 412 680 369 651 q 357 644 342 630 q 327 615 302 587 q 269 551 235 492 q 198 428 170 350 l 155 304 q 143 261 138 235 q 134 209 134 193 q 134 128 160 104 q 187 81 264 81 q 301 81 342 92 q 383 104 442 132 q 468 145 481 152 q 505 165 523 179 q 571 217 580 217 q 584 217 597 208 q 615 195 615 178 q 615 156 584 123 q 549 86 479 34 q 468 25 459 20 q 450 14 436 7 q 399 -11 368 -18 q 337 -26 300 -26 q 241 -26 196 -7 q 152 12 104 59 q 72 90 54 130 q 37 170 31 229 z"},"W":{"x_min":0,"x_max":1001,"ha":1001,"o":"m 240 169 l 250 188 l 255 202 l 281 270 l 306 339 q 347 451 389 564 q 413 628 426 647 q 435 660 454 666 l 459 667 l 474 670 l 493 676 q 500 679 509 676 q 518 673 537 660 q 545 655 550 650 q 556 646 558 642 l 562 625 l 568 609 l 583 497 l 599 406 l 602 388 l 611 334 l 616 304 q 631 233 636 213 q 646 173 654 159 l 656 156 l 661 150 l 667 157 l 669 160 q 677 173 688 205 q 704 253 710 273 l 717 296 q 741 368 765 440 q 786 500 793 514 q 820 566 832 593 q 844 620 844 631 q 844 640 833 645 q 831 646 820 646 q 810 646 798 646 q 792 646 786 650 q 780 655 772 666 l 756 699 q 746 719 746 727 q 746 735 763 740 l 780 742 l 784 743 l 830 754 l 885 763 l 913 768 l 925 769 q 971 769 985 763 q 999 757 1010 727 q 1022 697 1022 690 q 1022 675 986 661 l 963 653 q 934 646 926 626 q 917 605 883 475 q 880 459 870 432 q 847 369 823 304 q 810 269 796 229 q 787 204 785 194 l 783 182 l 779 166 l 757 109 q 739 64 730 35 q 713 -17 687 -17 q 675 -17 658 -11 l 629 -2 q 587 13 570 44 q 553 76 527 190 l 511 260 q 493 359 490 380 q 486 401 486 417 l 469 492 l 457 477 q 451 470 444 455 q 430 427 415 391 l 383 316 l 378 303 l 358 252 q 334 191 324 160 q 313 129 301 82 l 300 78 l 288 49 l 287 44 l 279 14 q 267 -31 232 -26 l 201 -20 l 190 -18 l 184 -17 q 173 -15 164 -8 q 156 -2 152 5 q 148 12 144 32 l 136 78 l 134 91 l 119 218 l 108 307 l 104 336 l 96 443 l 96 450 l 85 523 l 78 590 q 75 613 73 615 q 71 617 43 626 q 29 630 8 657 q -9 680 -9 693 q -9 711 12 716 q 33 721 54 726 q 75 731 94 734 l 105 735 l 194 746 q 200 747 205 747 q 212 747 215 747 q 243 747 262 720 q 267 713 270 705 q 274 697 274 689 q 270 654 234 642 l 203 633 q 200 633 202 604 q 204 576 204 519 l 206 497 l 209 466 l 216 390 l 222 321 l 225 287 q 225 243 229 215 q 230 209 235 185 l 237 180 z"},"A":{"x_min":0,"x_max":764,"ha":764,"o":"m -22 42 q -19 65 16 72 l 44 78 q 48 81 50 84 q 55 90 58 98 l 77 146 l 88 175 q 100 211 112 240 q 125 268 131 284 l 164 363 l 207 463 l 273 608 l 304 674 l 307 680 l 314 691 q 351 749 387 749 q 398 749 412 746 l 421 744 l 446 739 q 452 737 456 736 q 462 735 482 735 q 508 732 518 703 l 537 645 l 539 639 l 566 551 l 595 459 l 598 448 l 609 411 l 630 335 l 634 322 l 669 213 l 687 154 q 694 125 697 121 q 701 115 714 111 l 717 110 l 734 107 l 741 105 q 769 95 769 82 q 769 70 769 60 q 769 49 770 41 q 770 25 767 21 q 763 16 749 12 l 731 7 l 725 6 l 718 5 l 646 -5 l 607 -11 l 597 -12 q 561 -12 547 -1 q 539 5 524 25 l 512 44 q 509 49 509 55 q 509 80 548 88 q 586 96 586 106 q 586 112 578 138 l 568 168 l 567 172 q 558 193 541 198 q 524 203 467 203 l 414 203 q 384 200 368 197 q 353 194 308 182 l 283 175 l 245 164 q 215 155 202 150 q 190 145 184 140 l 165 114 q 152 95 152 87 q 152 79 164 73 l 181 67 q 188 66 204 45 l 212 29 q 217 17 217 10 q 217 -11 182 -17 l 152 -23 l 148 -24 q 127 -28 123 -28 q 115 -29 99 -29 q 76 -29 39 -21 l 22 -17 q 8 -13 1 -8 q -6 -3 -14 14 q -23 32 -22 42 z m 384 293 q 460 293 472 294 q 522 298 522 327 q 522 343 510 376 q 498 410 492 428 q 481 459 474 482 q 467 506 456 551 q 446 596 440 614 q 433 633 426 642 q 418 650 414 642 q 403 626 395 603 l 370 555 l 334 484 l 289 390 q 266 340 257 319 q 248 298 239 271 q 245 270 255 270 q 265 270 276 272 q 300 278 318 282 q 337 286 355 290 q 373 293 384 293 z"},"f":{"x_min":0,"x_max":359,"ha":359,"o":"m -22 384 q -17 407 4 421 q 26 435 90 454 l 119 460 l 124 467 q 125 469 128 490 q 141 572 146 609 l 151 633 q 176 716 207 747 q 244 785 296 785 q 312 785 321 784 l 354 776 q 412 754 432 738 q 452 722 452 702 q 452 689 444 682 q 436 674 424 676 l 401 682 l 379 690 l 371 694 q 368 695 357 695 q 347 695 338 695 q 306 695 288 678 q 271 660 256 613 l 255 609 l 242 553 q 234 518 234 499 q 234 485 243 482 l 279 486 l 292 487 q 324 487 344 480 q 365 474 365 447 q 365 435 356 421 q 347 407 331 400 q 315 394 269 390 q 239 390 232 376 q 224 363 224 312 l 224 274 l 221 161 q 221 149 220 139 q 220 129 220 121 q 220 105 228 99 q 232 96 269 79 q 276 76 284 62 l 287 55 q 294 30 294 23 q 294 7 274 2 q 254 -4 182 -11 l 153 -13 l 132 -15 q 120 -17 110 -17 q 100 -17 96 -17 q 78 -17 70 -10 q 45 12 45 31 q 45 51 69 64 q 93 76 104 78 q 116 80 116 108 q 117 135 117 178 q 117 207 117 234 q 117 261 118 286 l 120 330 q 120 354 98 354 q 82 354 52 342 l 38 338 q 26 336 21 336 q 0 336 -12 346 q -23 357 -23 375 q -23 381 -22 384 z"},"Q":{"x_min":0,"x_max":730,"ha":730,"o":"m 29 327 q 29 348 30 370 q 31 391 35 418 q 39 444 48 474 q 56 503 65 524 q 97 594 120 626 q 144 659 192 702 q 234 740 277 755 q 318 771 340 771 q 354 771 376 763 q 399 755 408 751 q 410 750 423 747 q 452 740 462 738 q 473 735 488 728 q 502 720 536 698 q 619 643 660 571 q 700 499 700 401 q 700 371 698 353 q 696 335 695 325 q 683 235 651 172 q 633 136 618 112 q 602 88 589 75 q 572 58 560 48 q 549 38 543 35 l 513 17 q 509 15 509 8 q 509 1 514 -8 q 518 -16 531 -31 l 553 -57 l 556 -60 q 569 -75 586 -83 l 592 -86 l 601 -90 q 615 -95 615 -107 q 615 -111 612 -118 q 608 -125 594 -135 q 579 -145 562 -152 q 546 -159 535 -159 q 518 -159 502 -148 q 486 -136 459 -107 q 440 -86 426 -62 q 409 -33 401 -24 q 393 -16 385 -14 q 377 -12 363 -12 l 304 -12 q 292 -12 276 -7 q 259 -2 209 19 q 151 43 126 64 q 102 86 70 142 q 39 198 31 288 l 30 313 z m 189 125 q 212 93 237 77 q 262 61 278 59 q 295 57 300 57 q 304 57 308 57 q 317 57 329 59 q 336 62 326 78 l 318 91 l 311 104 l 304 116 q 296 134 296 144 q 296 164 321 172 q 325 173 334 173 q 345 173 355 171 q 365 169 378 162 q 388 158 395 152 q 402 145 411 132 l 423 115 q 435 101 443 101 q 451 101 469 120 l 491 143 l 493 146 q 503 159 515 182 q 527 204 540 235 l 556 282 q 569 334 572 364 q 575 394 575 446 l 572 476 q 567 519 558 544 q 550 570 534 596 q 517 621 500 637 q 484 653 467 662 q 441 676 411 676 q 372 676 317 648 q 286 631 259 598 q 227 559 197 496 l 178 453 q 159 398 151 352 q 149 339 148 323 q 147 307 147 278 q 147 263 147 257 l 150 228 q 161 162 189 125 z"},"w":{"x_min":0,"x_max":852,"ha":852,"o":"m 573 150 q 583 155 586 160 q 589 165 598 187 l 602 198 l 610 221 l 630 268 l 663 344 q 680 376 680 383 q 680 392 643 413 q 636 416 631 428 q 626 441 626 462 q 626 485 656 492 q 686 500 781 500 q 802 500 814 497 q 827 494 842 486 q 857 479 857 454 q 857 444 852 434 q 848 424 839 416 l 800 398 q 758 380 740 332 q 710 250 680 166 l 663 116 q 646 65 641 50 q 636 34 635 31 l 624 -8 q 619 -26 584 -26 q 568 -26 551 -16 q 534 -7 524 8 q 515 22 499 65 l 489 95 q 475 135 467 162 q 459 190 455 212 q 439 286 432 308 q 426 331 421 335 l 417 335 q 415 333 408 316 q 389 274 371 233 l 359 202 l 311 72 q 300 28 296 19 q 286 -7 261 -7 q 249 -7 242 -6 q 196 -2 183 41 l 179 53 l 152 150 l 128 239 l 123 259 l 110 310 l 109 313 q 99 356 91 365 q 83 374 37 389 l 19 394 q 15 395 12 399 q 6 406 -1 422 l -4 430 q -9 442 -9 448 q -9 461 10 469 q 29 477 79 485 l 99 488 l 132 492 l 145 493 l 171 494 q 211 494 230 478 q 250 461 250 440 q 250 416 226 403 l 199 391 q 197 381 199 369 q 199 364 205 343 q 211 322 221 289 l 256 172 q 268 188 280 204 q 295 242 311 297 l 313 301 l 365 423 q 396 495 423 495 q 443 495 485 462 q 492 457 494 450 q 497 443 503 418 l 505 412 l 517 342 l 530 279 q 547 213 573 150 z"},"-":{"x_min":0,"x_max":391,"ha":391,"o":"m 29 313 q 29 324 33 328 q 37 332 50 334 l 63 335 l 186 342 l 207 343 l 253 347 l 271 348 q 303 348 317 344 q 331 340 340 328 q 362 303 362 284 q 362 269 345 257 q 337 250 307 250 l 245 251 q 206 251 192 251 q 177 251 171 250 l 90 241 q 82 239 74 243 q 65 247 51 262 l 42 275 q 38 283 34 294 q 29 306 29 313 z"},"E":{"x_min":0,"x_max":654,"ha":654,"o":"m -14 643 q -10 654 5 660 q 20 667 68 679 l 115 690 l 244 716 q 314 729 430 744 l 477 749 l 554 759 q 570 762 580 747 q 590 732 590 698 l 591 687 l 591 677 l 591 619 l 590 596 q 590 556 584 540 q 579 524 566 524 q 561 524 558 525 l 552 527 l 539 531 q 512 541 505 550 q 498 559 493 587 l 488 618 q 488 640 487 643 q 485 650 474 650 q 469 650 458 648 q 448 647 435 646 q 422 644 412 642 q 401 640 348 625 l 308 619 q 237 607 224 594 q 210 580 210 524 q 210 514 210 508 q 210 499 210 495 q 210 450 204 409 q 203 404 200 388 q 198 372 198 366 q 198 348 218 348 q 230 348 256 352 q 282 356 304 360 l 341 368 q 408 384 443 384 q 467 384 480 376 q 494 369 499 354 q 508 331 508 320 q 508 304 478 298 l 475 297 l 412 289 l 404 288 l 334 274 l 294 265 l 288 264 l 283 263 l 232 248 q 207 241 205 239 q 202 236 199 218 l 203 133 l 205 94 q 208 78 221 78 q 232 78 294 95 q 302 97 318 99 q 365 105 463 115 l 480 116 q 522 116 529 124 q 536 131 544 186 l 546 205 l 548 218 l 550 234 l 553 246 q 564 278 582 278 q 594 278 612 263 q 631 248 635 240 q 639 231 639 201 q 639 175 638 151 q 638 127 638 104 q 638 90 638 83 l 635 65 q 625 40 606 33 l 516 23 q 491 21 488 20 q 464 15 447 12 l 427 9 l 419 7 l 362 1 l 321 -4 l 213 -21 l 198 -25 l 179 -29 l 154 -35 l 144 -37 l 123 -41 q 107 -44 99 -44 q 91 -45 81 -45 q 50 -45 37 -30 q 24 -15 11 30 q 7 45 25 56 q 43 68 84 68 q 88 68 88 122 q 89 176 89 267 q 89 282 89 290 q 89 303 89 310 q 89 321 89 327 q 89 337 89 342 q 89 351 89 355 q 89 363 89 367 q 89 384 88 402 q 88 420 88 439 q 88 445 88 449 l 88 483 q 88 509 88 519 q 88 555 85 560 q 81 567 60 567 q 49 567 42 567 q 31 567 16 582 q 2 596 -8 613 q -19 630 -14 643 z"},"s":{"x_min":0,"x_max":486,"ha":486,"o":"m -2 79 q 0 92 10 100 q 20 109 35 109 q 57 109 98 95 l 114 90 l 135 82 q 145 79 160 76 q 175 73 213 68 q 251 64 267 64 q 282 64 303 71 q 324 78 315 92 q 311 99 301 106 q 291 114 260 134 q 247 143 218 155 q 181 171 118 194 q 101 201 90 209 q 70 223 58 238 q 45 254 40 272 q 34 289 33 292 q 31 301 31 309 q 31 326 50 367 q 60 388 82 409 q 108 435 154 465 q 174 478 188 486 q 203 493 214 497 q 241 505 256 505 q 272 505 298 496 q 314 490 338 481 l 349 476 q 361 470 372 466 l 379 486 q 387 507 403 507 q 411 507 421 500 q 431 492 437 482 q 448 467 450 457 q 452 447 452 415 l 452 398 l 451 367 q 451 335 448 324 q 446 312 432 282 q 428 270 419 260 q 410 250 399 250 q 378 250 365 272 q 352 295 352 327 q 352 343 355 370 l 355 392 q 355 427 322 427 q 311 427 296 421 q 243 399 224 385 l 193 363 l 191 361 l 166 338 l 146 318 q 141 311 141 305 q 141 287 172 274 l 234 246 l 252 239 l 260 235 l 268 231 l 284 221 q 291 218 300 214 q 310 211 311 210 q 336 203 361 187 q 448 137 448 93 q 448 67 416 33 l 401 20 q 372 -4 345 -14 q 318 -24 270 -24 q 239 -24 215 -22 q 191 -19 152 -9 l 134 -4 l 123 -1 l 112 3 q 53 26 34 35 q 15 44 9 52 q -3 69 -2 79 z"},"l":{"x_min":0,"x_max":249,"ha":249,"o":"m -14 673 q -15 677 -15 684 q -15 697 -6 705 q 4 713 34 726 l 45 731 l 77 740 l 84 741 l 108 743 q 135 743 142 740 q 150 738 164 722 l 171 713 q 174 708 176 700 q 179 691 179 675 q 179 660 178 620 q 177 581 177 557 q 177 543 176 504 q 175 465 175 429 l 174 305 l 174 209 l 174 194 l 176 99 q 179 96 186 94 q 193 91 222 82 q 229 80 236 69 l 239 65 q 248 41 248 31 q 248 17 226 10 l 203 2 l 199 1 l 123 -8 l 84 -12 q 78 -13 68 -13 q 27 -13 5 25 q -1 37 -1 46 q -1 57 10 64 q 20 70 40 72 q 61 74 68 87 q 76 100 76 156 q 76 212 75 272 q 74 332 73 388 l 72 509 l 74 564 l 74 568 q 77 595 77 608 q 77 626 71 631 l 41 632 l 31 633 q -8 641 -14 673 z"},"8":{"x_min":0,"x_max":695,"ha":695,"o":"m 4 144 q 4 173 25 219 q 38 247 67 282 q 100 322 157 377 l 179 397 q 185 402 200 416 q 216 429 216 435 q 216 441 174 473 l 157 489 q 106 545 106 597 q 106 639 139 674 q 172 709 243 739 q 271 751 292 757 q 313 763 328 765 q 342 767 356 768 q 371 769 382 769 q 395 769 410 766 q 425 763 441 758 q 485 743 507 731 q 529 719 538 707 l 553 691 q 561 694 568 698 l 600 718 l 645 747 q 650 750 656 750 q 667 750 678 740 q 688 731 690 714 q 692 697 692 691 q 692 666 662 646 l 659 644 l 636 631 l 634 629 l 589 599 l 582 594 l 566 584 q 563 582 548 570 q 533 559 519 547 l 503 534 l 479 513 q 465 500 451 490 q 442 483 433 478 q 406 464 381 442 q 377 438 377 435 q 377 428 393 419 l 396 417 l 433 398 l 459 383 q 535 333 569 292 q 603 252 603 210 q 603 173 578 125 q 560 89 534 64 q 509 40 458 14 q 407 -13 343 -25 q 319 -29 302 -31 q 285 -33 266 -33 q 251 -33 236 -32 q 221 -30 191 -25 l 176 -21 l 166 -19 l 149 -14 q 92 5 64 26 q 35 46 21 77 q 16 88 10 108 q 4 129 4 144 z m 290 493 q 305 510 324 525 q 344 540 394 574 q 443 608 452 614 q 462 621 466 626 q 478 640 478 646 q 478 651 465 664 l 453 675 l 450 678 q 429 696 399 696 q 385 696 350 691 q 314 686 280 660 q 246 635 232 613 q 219 591 222 568 l 234 540 q 250 509 270 497 q 285 488 290 493 z m 509 256 q 504 267 492 277 q 480 287 453 303 l 442 310 l 406 330 q 328 373 311 373 q 296 373 279 357 q 273 351 254 330 l 230 304 l 216 287 l 182 248 q 148 207 132 180 q 117 152 112 131 q 108 110 108 99 q 108 71 128 60 q 147 48 196 48 q 204 47 212 47 q 219 47 227 47 q 249 47 261 48 q 273 49 293 54 q 344 66 363 74 q 382 82 430 112 q 456 129 479 151 l 504 186 l 508 197 q 514 217 514 231 q 514 244 509 256 z"},"e":{"x_min":0,"x_max":512,"ha":512,"o":"m 29 183 q 29 204 30 225 q 30 246 36 274 q 47 327 70 368 q 91 410 126 448 q 155 480 178 498 q 201 515 223 524 q 286 551 318 551 q 352 551 394 521 q 431 496 449 470 q 467 444 473 409 l 475 383 l 476 370 l 475 330 q 475 278 464 264 q 453 249 413 244 l 403 242 l 375 240 l 262 216 l 169 195 l 149 190 l 145 189 l 130 184 q 110 178 110 158 q 110 153 112 144 q 113 134 117 118 q 129 69 199 69 l 221 71 l 228 71 q 260 75 290 86 q 321 97 371 122 l 404 141 l 429 155 q 437 158 443 158 q 456 158 466 148 q 475 139 475 122 q 475 105 468 92 q 460 78 440 63 l 422 49 l 416 45 q 404 37 386 30 q 369 22 363 19 q 314 -2 284 -9 q 253 -16 222 -16 q 102 -16 49 103 q 40 122 34 142 q 29 163 29 183 z m 244 296 l 248 296 l 297 307 l 313 310 l 349 320 q 369 325 373 338 q 377 351 377 410 q 377 424 376 432 q 374 440 368 452 q 357 473 342 473 q 325 473 280 447 q 257 434 226 406 q 214 395 198 377 q 182 359 175 349 l 155 318 q 145 303 142 296 q 138 289 138 284 l 139 273 q 145 277 168 282 q 192 287 244 296 z"},"b":{"x_min":0,"x_max":596,"ha":596,"o":"m -14 724 q -12 727 -8 730 q -1 734 14 740 l 78 757 l 97 762 l 112 767 q 123 770 130 770 q 152 770 175 738 q 191 715 191 700 l 185 672 l 182 614 l 179 553 l 179 535 q 179 508 179 503 q 179 496 180 495 l 184 492 l 229 496 q 247 496 268 494 q 289 491 333 482 q 377 472 407 462 q 437 451 460 438 q 508 411 527 390 q 546 368 556 338 q 565 309 565 285 q 565 254 552 225 q 539 196 507 156 q 481 124 450 100 q 419 75 356 41 q 293 7 229 -1 l 210 -4 l 153 -12 l 123 -16 l 92 -17 l 80 -17 l 65 -16 q 34 -16 20 22 q 13 39 13 52 q 13 75 52 87 q 70 92 76 98 q 82 104 82 122 q 82 139 79 164 q 76 188 73 219 l 74 328 l 73 424 l 72 448 l 72 463 q 73 472 74 491 q 75 510 75 540 l 73 575 q 73 594 73 614 q 73 633 76 646 l 76 650 q 71 657 55 657 q 43 657 33 657 q 17 657 2 672 l -4 680 q -13 695 -15 706 q -17 718 -14 724 z m 224 103 l 228 104 l 260 112 q 295 123 322 137 q 350 151 374 170 q 413 202 435 226 q 453 246 461 262 q 478 301 478 320 q 478 348 423 380 q 380 405 318 405 q 294 405 271 402 q 248 398 228 392 q 208 386 193 377 q 178 368 174 360 q 171 351 171 315 q 171 292 171 272 q 171 251 172 232 q 172 206 172 184 q 171 162 171 144 q 171 113 174 105 q 176 97 185 97 q 196 99 204 100 z"},"%":{"x_min":0,"x_max":1006,"ha":1006,"o":"m 639 582 l 635 584 l 633 584 l 583 570 q 563 564 547 564 q 520 564 483 581 l 461 592 q 449 598 442 599 q 436 600 435 595 l 432 524 q 432 491 417 432 q 399 366 372 326 l 366 318 l 355 303 q 335 277 316 266 q 297 254 264 248 q 247 245 234 245 q 208 245 166 263 q 156 268 147 274 q 138 279 128 287 l 118 295 l 103 308 q 61 343 46 385 q 30 427 30 502 q 30 519 32 529 q 33 539 39 563 q 49 611 62 642 q 76 674 96 702 l 112 721 q 166 780 223 780 q 275 780 343 733 q 365 719 376 708 l 385 699 l 401 683 q 416 667 439 658 q 462 650 495 650 q 545 650 612 670 q 678 691 706 704 q 735 718 787 755 l 815 771 l 834 786 q 841 793 855 790 q 862 789 872 780 l 874 778 l 886 765 l 908 745 q 919 736 919 725 q 919 713 907 704 l 891 696 q 874 687 858 675 q 836 659 812 637 l 797 623 l 775 602 l 750 582 q 727 564 690 526 q 668 503 625 456 l 556 380 l 491 306 l 475 286 l 411 205 l 331 104 l 269 25 l 235 -12 l 233 -14 q 228 -17 227 -27 l 212 -20 q 203 -18 203 2 q 203 23 221 51 l 243 84 l 280 134 l 291 148 l 324 192 l 347 223 l 415 308 l 484 394 l 555 481 l 583 514 l 616 552 l 621 558 z m 562 231 q 562 257 566 278 q 571 299 579 323 q 592 365 612 396 q 632 428 657 447 q 702 482 748 482 q 782 482 823 468 q 864 455 899 425 q 943 386 960 346 q 977 307 977 245 q 977 233 976 220 q 975 206 972 193 q 952 91 901 38 q 850 -16 780 -16 q 757 -16 732 -10 q 708 -4 682 11 q 656 26 631 51 l 621 61 l 604 78 q 586 96 580 108 q 574 121 565 156 q 563 162 562 178 q 562 193 562 205 q 562 221 562 231 z m 215 312 q 252 312 277 329 q 302 346 327 389 q 337 407 350 441 q 362 475 369 509 l 372 525 q 376 548 377 560 q 378 571 378 580 q 378 589 375 592 l 355 616 l 349 626 q 342 638 337 648 q 332 659 331 667 q 331 694 322 706 q 312 717 286 717 q 281 717 274 716 q 267 715 263 715 q 253 714 240 709 q 228 704 211 694 q 182 677 160 646 q 139 616 118 559 q 112 541 108 520 q 103 499 103 472 l 102 441 q 102 372 129 342 q 156 312 215 312 z m 656 92 q 695 40 748 40 q 781 40 812 60 q 830 72 846 94 q 862 115 879 151 q 883 160 886 170 q 890 179 892 190 q 907 246 907 284 q 907 292 904 314 q 901 337 894 353 q 888 369 871 387 q 842 417 808 417 q 791 417 762 409 q 751 406 738 398 q 726 391 704 374 q 695 367 686 356 q 677 344 666 324 q 647 291 635 237 q 630 210 630 195 l 630 174 q 630 147 636 128 q 643 109 656 92 z"},"m":{"x_min":0,"x_max":875,"ha":875,"o":"m -13 436 q -16 450 -8 460 q 0 470 29 482 q 69 500 96 500 q 103 500 113 498 q 154 488 165 453 l 168 442 l 222 455 q 234 457 239 458 q 247 459 263 459 q 287 459 308 456 q 328 453 336 452 q 344 450 360 444 q 376 439 392 431 q 409 423 416 418 l 439 399 q 449 402 460 409 l 469 416 l 479 423 q 489 431 509 438 q 535 448 570 455 q 580 457 592 458 q 605 459 616 459 q 673 459 704 439 q 760 405 779 368 q 802 325 802 237 q 802 223 802 216 q 802 207 802 198 q 800 186 800 180 q 797 153 796 144 q 795 134 795 121 q 795 106 799 102 q 803 98 816 96 l 826 94 l 832 93 q 840 93 853 75 q 861 63 861 50 q 861 37 851 28 l 800 19 l 797 18 l 778 12 l 775 11 l 756 8 l 719 4 q 677 4 664 7 q 651 10 638 24 q 625 39 625 55 q 625 72 636 76 q 647 81 666 83 q 686 85 692 93 q 698 101 698 133 q 698 149 698 164 q 697 179 697 192 q 697 199 697 203 l 690 300 l 689 308 l 687 326 l 684 340 l 680 354 q 672 381 662 391 q 651 401 630 401 q 625 401 620 401 q 612 399 602 398 q 593 396 579 390 q 565 384 543 368 q 498 338 486 321 q 473 304 473 272 q 473 263 474 241 q 474 219 474 196 q 474 174 474 150 q 475 127 474 124 q 473 121 482 116 q 491 112 521 100 q 528 97 536 78 q 539 70 539 63 q 539 41 513 36 l 493 33 l 484 32 l 461 30 l 415 26 q 383 23 367 23 q 348 23 338 28 q 329 32 318 47 q 307 62 307 75 q 307 95 322 100 q 338 104 350 107 q 361 110 373 110 q 375 119 376 147 q 377 175 377 268 q 377 283 374 298 q 372 313 367 330 q 362 347 353 363 q 329 402 300 402 q 287 402 269 396 q 198 374 184 354 q 171 333 171 252 q 171 242 171 237 q 171 228 171 224 q 171 203 170 183 q 169 163 166 144 q 163 124 163 111 q 163 76 204 76 q 215 76 230 50 q 239 35 239 25 q 239 6 183 -2 l 133 -8 l 83 -13 l 73 -13 q 49 -13 36 -9 q 24 -5 15 3 q 1 17 1 33 q 1 49 15 57 q 44 72 67 80 q 70 81 70 93 q 70 107 70 122 q 69 136 69 151 q 69 160 69 165 l 69 248 l 73 330 q 76 359 76 372 q 76 395 53 400 l 50 401 l 33 404 l 19 407 q -10 417 -13 436 z"},",":{"x_min":0,"x_max":187,"ha":187,"o":"m -29 -85 q -30 -82 -30 -75 q -30 -68 -27 -60 l -25 -54 l -2 -5 l 3 6 l 12 27 l 34 66 q 61 108 73 147 q 75 154 87 154 q 92 154 102 149 l 111 142 q 136 117 146 104 q 157 91 157 81 q 157 69 145 48 q 133 27 126 14 l 113 -9 l 91 -47 q 71 -85 52 -102 q 33 -120 15 -120 q -2 -120 -18 -102 q -27 -91 -29 -85 z"},"n":{"x_min":0,"x_max":586,"ha":586,"o":"m 0 438 q -3 447 -3 455 q -3 471 14 480 q 32 488 86 501 q 97 504 115 506 l 141 506 q 160 506 166 500 q 171 495 175 473 q 176 471 183 472 q 188 473 225 481 q 240 485 273 485 q 291 485 301 484 q 342 484 362 478 q 381 472 415 451 q 460 424 482 392 q 503 359 510 301 q 512 293 512 284 q 512 276 512 267 l 509 116 q 508 112 519 106 q 530 101 562 89 q 569 85 573 65 q 574 61 574 54 q 574 33 553 22 q 532 12 480 12 q 456 12 445 12 q 388 12 373 18 q 358 23 346 50 q 344 55 342 63 q 341 68 341 73 q 341 95 374 95 q 401 95 407 102 q 413 109 413 143 q 413 161 413 173 l 409 293 l 408 302 q 408 335 405 350 q 402 364 395 378 q 383 405 365 414 q 347 422 306 422 q 286 422 256 410 l 245 406 l 226 398 q 195 384 186 362 q 178 340 178 271 l 177 171 l 177 146 l 178 85 l 206 75 q 238 63 238 38 q 238 28 228 12 q 217 -3 178 -8 l 136 -14 l 130 -15 q 117 -17 106 -17 q 94 -17 89 -17 q 74 -17 63 -16 q 52 -14 42 -9 q 33 -4 28 4 q 8 37 8 49 q 8 58 25 67 q 28 69 37 72 q 46 74 63 77 l 70 80 q 78 85 78 100 q 78 121 77 160 q 76 198 75 236 q 75 274 74 304 q 74 335 74 358 q 74 366 74 374 q 76 383 76 387 q 73 393 70 396 l 42 402 q 8 408 0 438 z"},"h":{"x_min":0,"x_max":617,"ha":617,"o":"m -29 684 q -25 702 -7 709 l -2 711 l 60 728 l 87 736 l 105 738 q 156 738 171 704 q 186 669 186 552 l 182 516 q 180 503 178 493 q 177 483 177 472 q 177 459 183 455 q 188 452 205 452 l 259 464 q 271 467 296 467 q 308 467 316 467 q 349 467 375 458 q 401 450 440 428 q 496 395 515 366 q 534 338 543 267 l 545 249 l 545 187 q 545 143 552 135 q 558 127 589 127 q 597 127 611 110 q 625 93 625 76 q 625 57 606 47 q 599 44 585 41 q 571 38 537 34 l 510 32 l 479 31 q 458 31 450 31 q 416 31 405 36 q 380 47 370 57 q 361 67 361 81 q 361 93 371 100 l 393 109 l 402 112 l 424 119 q 438 123 441 126 q 444 129 444 143 q 444 152 444 158 l 436 275 l 436 281 l 432 310 q 424 355 406 374 q 389 394 356 394 q 336 394 302 386 l 280 380 l 231 362 q 194 348 188 340 q 182 333 182 295 q 182 279 182 269 l 181 108 q 181 93 187 90 q 192 87 213 84 q 234 82 245 61 q 253 45 253 35 q 253 17 230 4 q 206 -8 156 -18 l 135 -21 q 113 -21 100 -21 q 87 -21 81 -21 q 49 -21 40 -18 q 30 -15 14 2 q -1 19 -1 31 q -1 48 26 60 q 36 65 48 68 q 61 71 66 72 q 70 103 72 164 q 73 225 73 378 l 72 386 l 71 441 l 71 520 q 73 596 73 607 q 73 616 71 618 l 65 622 l 37 620 q 20 620 0 634 l -16 651 q -30 672 -29 684 z"},"z":{"x_min":0,"x_max":510,"ha":510,"o":"m 304 396 q 283 402 259 402 q 251 402 242 401 q 232 400 226 400 l 207 397 l 185 393 q 151 387 142 378 q 133 369 128 338 q 124 307 105 276 q 95 260 81 260 q 65 260 50 278 q 40 289 40 318 l 46 381 l 49 410 q 54 443 72 455 q 89 467 157 484 q 212 495 234 498 q 257 501 290 501 l 342 504 q 393 504 411 498 q 429 491 443 460 q 457 429 457 413 q 457 392 438 372 l 397 335 l 395 333 l 327 261 l 278 211 l 265 200 l 263 198 l 242 171 q 241 169 232 160 q 213 141 195 123 l 174 96 l 148 71 l 148 67 q 150 62 164 63 l 181 65 l 229 76 q 254 83 275 86 q 296 89 329 89 l 342 93 q 352 99 357 106 q 362 114 369 134 l 389 197 l 398 225 q 401 235 404 242 q 408 249 410 252 q 420 265 433 265 q 449 265 463 247 l 469 238 q 477 225 477 211 q 477 196 466 149 l 450 73 l 449 68 q 438 29 426 19 q 415 9 377 9 l 361 8 l 279 -1 l 153 -14 l 148 -15 q 88 -24 72 -24 q 53 -24 37 -9 q 23 2 19 16 q 15 29 15 40 q 15 45 18 66 q 20 87 54 129 q 95 180 214 300 l 239 325 q 279 364 286 372 q 294 379 304 396 z"},"B":{"x_min":0,"x_max":720,"ha":720,"o":"m 0 664 q -2 670 -2 680 q -2 698 14 708 q 31 718 73 726 l 100 731 l 104 731 q 155 739 206 739 l 230 738 l 302 737 q 353 737 374 736 q 395 734 420 731 q 468 723 498 714 q 529 706 553 694 q 591 675 608 664 q 626 652 638 639 q 673 600 673 563 q 673 517 617 474 q 614 472 595 459 q 581 449 578 448 q 561 440 544 432 q 526 424 526 419 q 526 417 531 412 l 579 394 q 591 389 600 383 q 603 381 624 366 q 684 324 689 263 q 690 256 690 243 q 690 211 678 190 l 676 188 l 670 181 q 638 140 600 109 q 547 66 492 42 q 437 19 333 -4 q 280 -15 244 -17 q 209 -19 179 -19 q 88 -19 63 -12 q 38 -5 15 28 q 2 47 2 64 q 2 84 16 90 q 31 96 64 100 l 77 101 q 84 101 88 109 q 91 117 91 140 q 91 163 83 227 q 82 238 82 253 q 81 268 81 277 q 81 306 84 382 q 86 458 86 495 l 88 515 q 94 553 94 569 q 94 587 86 592 q 77 598 62 603 l 37 611 l 34 612 q 30 613 21 628 q 12 642 3 658 z m 331 453 l 350 455 l 402 466 l 428 473 q 472 486 490 495 q 507 504 519 518 q 546 551 546 573 q 546 603 490 624 q 483 627 475 629 q 459 634 437 634 l 406 634 l 397 634 l 376 632 l 310 628 q 256 628 234 618 q 211 609 206 587 l 203 541 q 203 491 202 471 q 201 451 202 448 q 208 432 216 432 q 225 432 250 439 q 274 446 331 453 z m 286 103 l 321 109 l 336 111 q 415 125 468 148 q 522 172 555 194 q 574 207 584 222 q 593 236 593 250 q 593 273 571 288 q 549 302 527 309 q 505 316 454 325 l 422 329 l 322 326 q 231 326 214 317 q 198 308 198 262 l 198 210 q 198 194 198 184 q 198 173 198 167 q 198 124 204 110 q 209 97 232 97 q 250 97 286 103 z"},"K":{"x_min":0,"x_max":651,"ha":651,"o":"m 200 407 l 204 409 q 218 415 235 431 q 257 451 302 500 l 331 530 q 389 588 415 613 q 436 633 444 640 q 457 650 462 656 q 464 658 466 661 l 453 683 l 449 691 q 441 709 441 718 q 441 735 464 744 q 487 752 548 762 q 610 772 628 772 q 645 772 651 763 q 657 754 657 733 q 657 723 651 714 q 642 701 614 671 l 597 654 l 593 651 l 537 600 l 445 513 l 419 488 l 398 467 q 376 445 376 439 q 376 433 383 423 l 394 406 l 395 403 l 472 301 q 506 258 526 234 q 542 215 554 202 l 558 197 l 605 150 q 625 129 630 121 q 634 113 638 92 l 639 79 q 640 73 640 62 q 640 40 630 34 q 621 28 591 28 q 581 28 568 36 q 555 45 536 65 l 466 139 l 454 151 l 429 180 l 381 231 l 348 267 l 314 303 l 300 318 l 295 323 q 280 342 274 342 q 269 342 258 330 l 223 292 l 218 287 q 203 270 203 269 q 200 260 200 219 q 200 200 200 188 l 201 167 q 201 150 202 130 q 203 109 202 105 q 200 100 216 96 l 235 96 q 240 97 249 92 q 258 88 270 78 q 293 59 293 40 q 293 29 283 17 q 277 10 264 5 q 250 0 205 -9 l 182 -13 l 179 -14 l 147 -17 l 135 -18 l 119 -20 l 98 -22 l 92 -23 q 71 -23 62 -18 q 52 -13 38 -1 l 26 15 q 22 23 22 27 q 22 51 59 59 q 84 63 89 68 q 94 73 94 96 q 94 106 94 118 q 93 131 93 146 q 93 153 93 156 l 89 268 l 84 398 q 82 519 82 547 q 82 565 82 580 q 82 594 83 605 q 83 617 78 621 l 49 628 l 32 634 q 16 645 8 658 q -3 678 -3 691 q -3 719 46 724 l 88 729 l 110 731 l 174 743 l 182 744 q 220 744 230 743 q 240 742 248 734 q 262 722 268 709 q 275 696 275 684 q 275 667 264 662 l 248 655 q 231 649 212 643 q 202 640 199 640 q 196 639 196 631 q 196 621 197 592 q 198 563 198 535 q 198 513 198 492 q 197 471 197 451 q 197 438 197 431 z"},"R":{"x_min":0,"x_max":707,"ha":707,"o":"m -4 680 q 0 687 12 696 l 66 716 l 99 731 l 122 732 l 230 754 l 257 758 q 293 762 315 764 q 337 766 358 766 q 400 766 466 747 q 503 736 528 724 q 554 711 581 690 q 626 654 644 629 q 663 604 669 572 q 671 556 671 549 q 671 506 638 462 q 602 414 522 357 l 509 349 q 506 348 462 330 q 442 322 442 313 q 442 302 474 271 q 506 240 587 171 l 610 151 l 650 121 l 692 95 q 697 88 697 74 q 697 52 691 44 q 685 35 665 29 q 658 27 648 24 q 639 22 632 22 q 618 22 592 41 l 506 103 l 400 183 q 370 205 341 227 q 328 237 321 244 l 295 266 q 292 266 287 266 q 264 261 240 256 q 215 252 204 254 l 201 250 l 202 148 q 202 115 203 105 q 203 101 205 97 l 232 92 q 261 86 278 62 q 294 39 294 23 q 294 5 267 -6 q 253 -12 233 -18 q 213 -23 205 -24 l 190 -26 l 166 -29 l 125 -31 l 118 -30 l 92 -27 l 58 -25 q 54 -25 50 -23 q 44 -20 38 -14 l 32 -6 q 19 17 19 32 q 19 52 48 57 q 76 62 80 64 q 95 70 95 98 q 95 121 92 150 q 89 179 86 206 l 86 329 l 82 570 q 82 591 79 595 q 75 600 60 600 q 26 600 5 635 q -7 655 -7 667 q -7 674 -4 680 z m 274 374 l 278 375 q 299 381 319 388 q 339 396 370 410 q 402 425 431 444 q 460 463 496 494 q 532 524 549 551 q 566 578 566 601 q 566 636 528 657 q 511 666 440 666 l 384 666 q 358 663 350 662 q 342 661 325 657 q 261 643 236 632 q 211 622 202 611 l 195 490 q 195 438 194 416 q 193 394 192 377 q 192 369 195 366 q 203 359 210 359 q 218 359 242 366 z"},"T":{"x_min":0,"x_max":570,"ha":570,"o":"m 1 478 q -1 481 2 537 q 5 593 5 691 q 5 705 25 716 q 45 726 90 732 l 123 736 l 164 741 q 177 741 183 742 q 200 747 212 749 l 262 752 l 351 768 l 392 771 l 469 780 l 506 781 q 537 781 550 768 q 562 756 562 724 l 564 655 l 566 582 l 567 561 l 568 549 l 570 524 q 570 511 559 502 q 548 493 533 493 q 528 493 520 495 q 494 503 478 532 q 462 562 456 621 l 454 640 q 454 658 438 670 q 422 682 403 678 q 374 672 359 636 q 353 623 349 596 q 345 570 345 505 l 339 390 l 339 383 l 339 317 q 339 190 342 152 q 346 114 351 111 l 380 108 l 393 105 q 439 91 451 54 q 455 38 455 33 q 455 20 442 14 q 429 7 390 0 l 330 -13 l 305 -20 l 301 -20 l 295 -21 l 269 -21 l 238 -26 q 230 -28 208 -25 q 187 -22 176 -16 q 164 -10 155 4 q 143 21 143 35 q 143 57 181 69 l 198 72 q 220 75 228 84 q 236 93 236 121 q 236 154 227 235 l 226 240 l 226 367 l 223 453 q 223 519 222 537 q 221 555 221 568 q 221 582 221 588 q 221 621 218 629 q 214 637 197 639 l 169 632 l 139 629 q 115 627 109 621 q 103 615 99 597 q 95 579 93 558 q 91 538 91 514 l 83 484 q 74 448 53 448 q 50 448 36 450 q 21 453 5 472 z"},"P":{"x_min":0,"x_max":633,"ha":633,"o":"m 0 666 q 0 694 10 702 q 21 709 78 724 l 96 728 l 157 738 l 181 742 l 187 743 q 195 744 222 745 q 249 746 255 746 q 277 746 289 746 l 315 745 l 340 743 q 405 737 442 722 q 481 708 502 694 q 524 681 546 654 q 585 609 604 568 q 624 527 624 487 q 624 416 556 354 q 488 291 342 236 q 291 216 266 211 q 242 206 219 201 q 196 196 194 189 l 194 129 q 194 114 194 109 q 194 98 196 96 q 197 95 210 91 l 230 88 q 242 88 260 64 q 279 41 279 22 q 279 9 268 4 q 258 -1 246 -4 q 235 -7 195 -15 q 183 -17 172 -18 q 162 -20 157 -20 q 136 -20 118 -20 q 100 -20 86 -21 q 52 -21 34 -5 q 16 11 10 34 q 8 42 8 46 q 8 76 46 76 q 73 76 80 84 q 86 93 86 135 q 86 151 86 170 q 85 190 85 213 q 85 223 85 228 l 86 366 l 86 485 q 89 517 90 529 q 91 541 91 559 q 91 577 87 584 q 84 588 71 596 l 36 608 q 23 611 10 632 q 4 643 3 647 q 0 655 0 666 z m 317 326 l 321 328 q 348 336 381 356 q 414 375 440 399 q 484 438 504 471 q 525 504 525 532 q 525 562 503 592 q 477 631 397 642 q 391 643 385 643 q 377 643 373 643 q 357 643 348 642 q 274 633 252 627 q 229 621 220 610 q 214 607 209 605 q 200 594 200 446 q 196 334 196 322 q 196 316 199 313 q 207 306 216 306 q 225 306 286 319 z"},"t":{"x_min":0,"x_max":380,"ha":380,"o":"m -22 401 q -17 409 0 417 q 18 425 60 433 q 67 434 74 436 q 82 437 92 437 q 96 442 98 447 q 104 464 104 497 q 104 524 102 544 q 99 564 99 567 q 98 576 99 585 q 99 641 139 641 q 155 641 178 632 q 225 615 225 592 q 225 582 219 564 q 213 545 210 532 q 208 520 208 505 q 208 478 216 468 q 224 458 243 458 q 255 458 264 460 q 272 463 288 470 q 304 477 312 477 q 325 477 342 461 q 368 439 368 421 q 368 406 348 395 l 321 383 q 286 373 246 361 q 229 356 224 356 q 220 355 216 337 q 213 319 213 273 q 213 252 212 232 q 212 213 212 195 q 212 185 212 180 l 210 144 q 210 131 216 100 q 223 70 249 70 q 259 70 273 78 l 296 92 l 329 117 q 344 128 353 134 q 362 139 368 139 q 375 139 384 133 q 400 123 400 108 q 400 94 385 68 l 371 47 l 369 44 q 364 38 357 32 q 340 19 300 -5 q 282 -17 250 -17 q 244 -17 236 -16 q 228 -15 224 -15 q 185 -9 162 6 q 130 27 118 54 q 107 81 101 152 l 100 176 l 100 257 q 100 302 97 316 q 94 330 82 330 q 76 330 58 325 l 43 323 q 6 323 -9 348 q -24 374 -24 390 q -24 395 -22 401 z"},"M":{"x_min":0,"x_max":900,"ha":900,"o":"m 11 685 q 13 703 27 709 q 41 715 104 724 l 135 728 q 170 732 187 732 q 199 732 205 731 q 256 722 274 692 q 293 661 310 556 q 320 495 342 427 l 347 414 l 361 376 l 362 371 l 376 324 l 378 316 l 385 297 l 388 290 l 406 246 l 417 225 q 422 223 423 224 q 434 232 444 254 q 453 276 464 307 q 467 316 474 332 q 480 347 515 425 q 544 492 574 553 q 600 607 621 645 q 670 735 684 748 q 698 760 753 760 l 804 758 l 809 758 l 835 755 q 869 748 881 739 q 893 730 899 707 q 905 684 905 675 q 905 657 892 650 q 878 644 842 644 q 826 644 816 613 q 803 573 803 488 q 803 438 804 416 q 806 393 811 338 q 813 324 813 310 q 813 295 813 281 q 813 241 809 211 q 805 181 805 163 q 805 146 810 140 q 815 135 829 132 l 852 133 q 856 134 862 130 q 869 125 881 112 q 887 107 895 94 q 903 82 903 74 q 903 56 873 45 l 845 36 l 808 28 l 746 20 q 699 20 683 22 q 667 25 657 36 q 636 59 636 72 q 636 87 661 100 l 665 102 l 692 111 q 710 117 715 123 q 720 129 720 149 q 720 170 714 224 l 713 326 l 714 458 q 725 524 725 556 q 725 582 713 591 q 708 596 702 586 q 665 520 626 442 q 584 358 515 210 l 482 137 l 472 113 q 463 93 452 87 q 440 81 406 81 q 384 81 365 101 q 346 121 319 176 q 312 190 299 224 q 281 272 273 295 l 235 399 l 197 502 l 194 500 q 189 495 188 479 q 187 463 187 444 l 187 393 l 187 388 l 185 286 l 183 156 q 180 129 180 114 q 180 94 188 89 q 197 84 224 84 q 231 83 238 79 q 244 75 253 64 l 265 43 q 272 23 272 10 q 272 -8 256 -14 q 239 -21 194 -25 q 149 -29 123 -29 q 85 -29 67 -23 q 49 -17 34 -2 l 24 11 q 16 26 16 39 q 16 58 29 61 q 56 69 70 71 q 84 73 85 97 q 86 121 86 232 l 86 368 l 89 483 q 93 517 95 537 q 97 557 97 572 q 97 590 93 597 q 89 604 79 608 l 62 611 q 53 613 46 616 q 39 620 32 628 l 24 639 q 9 669 11 685 z"},"g":{"x_min":0,"x_max":580,"ha":580,"o":"m 413 477 l 415 487 q 418 499 426 507 q 433 515 442 518 l 507 516 l 544 516 q 554 517 571 502 l 581 490 q 594 471 594 454 q 594 426 567 419 q 553 416 541 414 q 529 412 516 412 q 514 409 514 406 q 509 385 509 328 l 510 225 l 512 159 q 516 -12 516 -43 q 516 -112 512 -144 q 509 -176 502 -202 q 490 -246 472 -263 q 454 -280 400 -297 q 388 -301 376 -302 q 363 -303 344 -303 q 324 -303 314 -303 q 303 -303 297 -303 q 285 -303 279 -302 l 249 -296 l 221 -291 l 193 -286 l 185 -285 q 133 -270 110 -258 q 88 -245 84 -232 q 81 -223 84 -216 q 88 -208 95 -207 q 107 -207 121 -210 q 135 -212 214 -228 l 270 -233 l 296 -233 q 343 -233 366 -220 q 388 -206 396 -175 l 403 -137 q 408 -111 410 -93 q 413 -75 413 -54 q 413 -26 409 -14 q 405 -3 400 -4 l 307 -30 q 298 -33 280 -34 q 262 -35 236 -35 l 201 -31 q 161 -25 146 -19 q 130 -13 99 12 q 61 43 44 72 q 28 100 28 137 q 28 145 28 153 q 29 159 34 192 q 40 226 56 266 q 72 305 100 348 q 153 429 207 467 q 261 505 318 505 q 360 505 403 482 z m 286 59 q 316 68 337 79 q 378 101 395 117 q 408 129 407 137 l 407 258 q 407 282 407 296 q 407 309 407 315 q 407 345 406 350 q 401 364 396 378 q 381 422 355 422 q 334 422 296 396 q 277 383 254 358 q 231 334 203 296 l 178 258 q 162 231 152 208 q 141 185 135 164 q 129 143 126 126 q 122 109 122 99 q 122 70 143 58 q 164 47 221 47 q 241 47 286 59 z"},"j":{"x_min":0,"x_max":248,"ha":248,"o":"m 55 672 l 56 684 q 63 724 74 736 q 86 748 114 748 q 124 748 136 742 q 148 735 156 725 q 176 703 176 679 q 176 674 174 666 q 156 595 122 595 q 107 595 88 606 q 68 617 62 631 q 55 645 55 672 z m -209 -134 q -197 -128 -190 -126 q -183 -123 -176 -123 q -167 -123 -146 -128 q -113 -137 -87 -143 q -74 -145 -66 -146 q -59 -147 -39 -147 l -18 -146 q 42 -140 58 -114 q 73 -88 73 15 l 73 54 l 73 207 l 72 316 q 72 330 72 335 q 72 363 69 368 q 67 372 47 375 l 28 378 l 25 379 l 14 382 q -25 403 -20 434 q -18 449 -5 454 q 20 463 44 472 l 70 481 l 77 483 q 98 488 112 490 q 126 492 140 492 l 153 493 l 169 493 q 202 493 218 472 q 235 451 235 438 q 235 419 205 407 l 176 394 q 169 393 169 375 q 169 366 169 358 q 172 342 173 332 q 174 323 174 300 q 174 271 174 241 q 173 211 173 180 q 173 161 173 150 l 170 59 l 168 16 q 168 -47 162 -80 q 155 -113 143 -143 q 126 -190 108 -206 q 91 -222 46 -230 l 23 -233 q -9 -233 -23 -230 q -37 -228 -72 -216 l -77 -214 l -115 -200 l -129 -194 l -159 -183 q -197 -168 -209 -134 z"},"i":{"x_min":0,"x_max":255,"ha":255,"o":"m 60 630 q 59 634 59 644 q 59 648 61 662 q 67 699 80 714 q 94 730 120 730 q 130 730 135 728 q 139 727 156 715 q 173 703 181 686 q 189 670 189 644 q 189 636 186 628 q 184 621 179 610 q 157 571 137 571 q 120 571 79 594 q 64 602 60 630 z m -13 431 q -13 448 6 461 q 25 474 73 485 l 103 492 q 120 496 130 496 q 140 496 158 483 q 176 470 180 464 q 183 457 183 439 l 182 411 l 178 293 l 176 146 l 175 130 l 175 123 q 175 105 180 100 l 205 94 q 211 94 217 90 q 236 81 244 49 q 248 31 248 27 q 248 15 238 10 q 229 4 200 -2 l 173 -5 l 164 -6 l 129 -9 l 93 -11 l 85 -12 q 77 -13 70 -12 q 62 -11 49 -5 q 24 4 15 22 q 6 40 6 50 q 6 69 68 90 l 73 91 l 77 98 q 78 99 78 109 q 78 130 78 154 q 77 179 77 207 q 77 225 77 235 l 74 372 q 71 375 59 378 l 41 379 q 22 379 12 389 q -1 402 -7 413 q -13 424 -13 431 z"},"y":{"x_min":0,"x_max":619,"ha":619,"o":"m 0 426 q -2 436 -2 440 q -2 458 25 468 l 48 477 l 55 479 l 79 484 q 107 489 116 490 q 124 492 135 492 q 153 492 169 477 q 185 462 185 442 q 185 431 184 402 q 183 374 183 358 q 183 332 183 304 q 183 276 184 245 l 186 224 q 195 140 212 117 q 229 94 279 94 q 292 94 308 98 q 323 102 339 109 l 370 123 q 401 138 412 146 q 423 153 428 162 l 437 187 q 454 241 454 289 q 454 328 444 356 q 434 383 421 391 l 393 394 l 380 397 q 367 402 358 410 q 341 427 341 442 q 341 464 389 487 q 403 493 430 500 l 443 503 q 468 508 479 508 q 500 508 526 488 q 541 477 544 470 q 548 463 548 443 q 548 429 547 393 q 546 357 546 338 l 546 333 l 547 215 l 547 197 l 544 59 q 544 -21 540 -60 q 537 -98 530 -131 l 527 -145 l 523 -165 q 513 -201 494 -218 q 476 -236 435 -245 q 408 -251 348 -251 q 326 -251 302 -247 q 279 -243 242 -232 l 211 -223 l 197 -218 l 178 -211 q 144 -197 132 -189 q 119 -181 115 -173 q 111 -165 111 -160 q 111 -151 119 -146 q 127 -141 134 -140 q 142 -139 154 -139 q 170 -139 186 -143 q 233 -158 290 -175 q 319 -183 339 -183 q 365 -183 386 -172 q 406 -160 416 -141 l 422 -129 l 433 -77 q 436 -60 438 -40 q 441 -19 441 -11 q 441 22 438 32 q 435 43 429 42 l 383 27 q 361 19 297 19 q 259 19 207 44 l 178 62 q 121 104 101 140 q 81 176 74 253 q 74 264 74 276 q 73 288 73 300 l 75 336 q 76 344 76 355 q 76 370 71 375 q 68 379 63 380 q 55 382 39 384 q 23 386 10 405 q 3 414 0 426 z"},".":{"x_min":0,"x_max":190,"ha":190,"o":"m 29 58 q 29 87 46 113 q 72 156 105 151 q 140 151 157 89 q 161 72 161 57 q 161 -5 109 -12 q 105 -13 96 -13 q 65 -13 47 6 q 29 25 29 58 z"},"p":{"x_min":0,"x_max":585,"ha":585,"o":"m -22 445 q -24 455 -24 459 q -24 474 4 487 l 28 499 l 31 500 l 54 507 l 106 528 q 119 533 127 533 q 136 533 150 527 q 164 521 170 514 q 176 506 183 484 l 253 488 q 275 488 298 484 q 321 481 358 471 q 417 456 460 427 q 555 364 555 289 q 555 245 524 192 q 492 139 418 90 q 368 57 321 40 l 310 37 l 252 20 l 219 10 l 182 4 q 180 -1 179 -12 q 178 -22 178 -69 q 178 -88 178 -100 l 181 -148 q 185 -156 198 -162 q 211 -167 239 -171 q 244 -172 250 -176 q 255 -181 266 -195 q 276 -209 276 -218 q 276 -237 218 -251 l 197 -256 l 179 -259 l 144 -264 l 119 -268 q 91 -272 71 -272 q 50 -272 27 -259 q 21 -256 12 -246 q 2 -235 2 -225 q 2 -210 18 -202 l 38 -196 q 63 -193 68 -185 q 74 -177 74 -143 l 74 -105 l 74 272 l 74 309 l 74 361 q 74 371 74 375 q 74 404 67 410 l 27 410 q -14 410 -22 445 z m 294 133 l 298 136 q 313 143 346 166 q 380 188 403 210 q 426 231 440 250 q 466 288 466 312 q 466 338 435 364 q 424 372 410 377 q 395 382 369 386 q 343 391 320 391 q 304 391 296 390 q 288 390 256 385 q 225 380 210 374 q 194 367 188 358 l 183 233 q 181 131 181 119 q 181 111 183 109 q 188 105 192 103 q 196 101 203 101 q 218 101 248 114 z"},"X":{"x_min":0,"x_max":736,"ha":736,"o":"m 102 100 l 135 142 l 195 230 q 214 259 236 289 q 250 308 255 314 q 264 325 277 341 q 286 352 287 356 l 286 363 l 205 497 l 125 630 q 117 634 110 634 q 102 635 98 635 q 93 635 86 634 q 79 633 75 633 q 72 634 70 634 q 64 636 55 641 q 40 649 36 659 q 21 692 21 704 q 21 719 43 726 l 71 735 l 74 736 q 120 748 161 755 q 202 762 237 762 l 266 762 q 282 762 290 759 q 297 756 302 749 q 323 716 323 698 q 323 674 282 663 l 272 661 q 260 659 252 656 q 244 652 248 646 l 260 623 l 299 563 l 305 553 q 336 510 346 492 q 356 475 359 463 q 364 464 368 466 q 371 467 373 470 q 390 491 418 526 q 457 575 476 597 q 490 613 502 623 l 501 626 q 499 627 497 628 q 486 634 480 636 l 471 640 q 443 656 443 684 q 443 695 447 703 q 459 726 493 735 q 549 750 696 750 q 711 750 726 734 q 741 719 741 695 q 741 663 735 650 q 729 636 711 630 l 685 627 q 666 625 656 617 q 647 609 596 558 l 516 471 q 475 428 462 413 q 427 375 427 359 q 427 344 485 272 q 510 243 533 212 q 551 188 576 152 q 597 121 601 116 q 615 98 624 92 l 626 90 l 630 88 q 638 86 647 86 q 655 86 664 86 q 680 89 691 90 q 701 91 715 76 l 722 66 q 732 45 732 29 q 732 0 689 -9 l 648 -18 l 643 -19 l 637 -19 l 553 -25 q 534 -25 526 -25 q 483 -25 470 -22 q 456 -18 441 -1 q 434 8 431 16 q 428 24 428 29 q 428 48 446 53 l 459 56 q 469 56 481 61 q 492 68 487 73 l 463 104 l 431 151 l 417 170 l 392 205 l 348 265 l 344 263 q 316 246 300 225 q 285 204 283 183 q 275 128 223 101 l 246 90 q 271 78 274 57 q 277 36 277 32 q 277 8 254 -2 q 232 -12 163 -19 l 110 -24 l 87 -24 q 54 -24 32 -13 q 11 -2 4 14 q -11 44 -11 57 q -11 73 28 87 l 35 88 l 38 89 l 69 92 z"},"*":{"x_min":0,"x_max":459,"ha":459,"o":"m 29 569 l 30 587 q 37 625 74 625 q 93 625 113 612 q 116 610 128 604 q 140 598 151 595 q 167 591 174 607 q 178 615 178 630 q 178 659 152 734 q 150 740 163 750 q 171 756 184 756 q 199 756 215 744 q 231 733 236 717 q 249 671 252 658 q 255 644 254 635 l 256 632 q 267 632 275 640 q 283 648 302 682 l 317 702 q 346 734 374 734 q 385 734 396 725 q 420 702 420 688 q 420 673 392 649 l 354 617 q 333 603 319 587 q 310 578 310 570 q 310 562 318 556 l 330 549 l 374 532 q 408 523 419 508 q 430 494 430 461 q 428 443 422 430 q 416 416 398 416 q 384 416 367 428 q 331 453 315 453 q 306 453 300 445 q 295 439 300 420 q 305 400 331 332 q 336 324 326 312 q 322 307 308 304 q 295 300 273 300 q 258 300 246 320 q 234 341 216 405 l 213 426 q 214 428 211 429 q 207 430 200 428 l 168 386 l 132 349 l 103 324 q 98 320 88 320 q 75 320 65 331 q 55 342 55 355 q 55 380 88 426 q 99 442 113 453 l 144 482 q 148 486 144 495 q 141 504 127 511 q 96 527 41 527 q 35 527 32 536 q 29 544 29 569 z"},"Y":{"x_min":0,"x_max":689,"ha":689,"o":"m 479 642 q 471 639 463 639 q 437 639 421 667 q 410 687 410 701 q 410 724 442 736 q 475 748 561 759 l 624 767 q 663 767 677 758 q 691 750 696 719 q 697 715 697 706 q 697 702 695 694 q 688 667 680 659 q 672 651 650 651 q 623 651 614 642 q 609 637 560 564 l 550 548 l 537 526 l 522 500 l 472 409 l 462 389 l 436 339 q 419 307 410 284 q 402 261 398 237 l 396 148 l 395 102 q 398 97 411 96 l 430 98 q 460 101 480 74 q 499 48 499 35 q 499 16 447 0 q 436 -4 416 -8 l 378 -16 l 370 -17 l 367 -18 l 322 -20 l 301 -22 l 283 -24 q 274 -25 270 -25 q 245 -25 215 5 l 206 14 l 199 23 q 192 31 192 41 q 192 59 228 72 l 237 75 l 257 78 q 273 80 276 83 q 280 87 282 99 l 283 113 l 284 116 l 282 207 q 282 220 282 226 q 282 256 276 270 q 275 272 259 302 l 240 337 l 233 349 l 184 428 q 163 460 140 499 q 123 528 116 544 q 83 615 68 630 q 52 646 8 651 q 4 654 2 657 q -4 664 -9 674 q -22 698 -22 712 q -22 748 59 763 l 95 767 l 100 767 l 165 766 q 196 766 208 761 q 220 756 228 740 q 240 716 240 705 q 240 694 222 668 q 210 652 189 652 q 184 652 181 653 l 184 645 l 256 524 q 285 474 315 425 q 326 407 331 403 q 335 399 340 399 q 346 399 349 405 q 378 453 404 508 q 423 549 472 616 q 474 618 476 626 q 477 633 479 642 z"},"c":{"x_min":0,"x_max":509,"ha":509,"o":"m 29 192 q 29 214 30 230 q 32 247 36 268 q 45 316 74 368 q 83 387 100 410 q 131 453 152 472 q 173 492 205 508 l 230 520 l 238 522 l 256 528 q 264 530 271 532 q 278 533 288 533 q 298 533 307 531 q 316 529 336 522 l 344 519 l 371 505 q 377 506 379 510 q 380 511 382 518 q 384 526 385 535 q 386 544 396 550 q 406 556 415 553 q 419 552 425 549 q 429 547 435 543 q 454 527 458 516 q 461 505 461 459 l 461 453 l 454 344 l 452 320 l 451 316 l 446 305 q 437 295 423 295 q 408 295 394 304 q 380 314 374 336 q 369 358 369 415 q 368 418 368 419 q 367 421 360 430 q 349 445 328 445 q 308 445 284 432 q 260 418 227 385 q 217 376 210 368 q 199 355 194 349 q 147 289 129 229 l 124 210 q 114 169 114 141 q 114 107 133 94 q 152 81 204 75 q 209 74 220 74 q 247 74 286 83 q 324 92 344 102 q 363 111 419 149 l 435 160 q 449 170 460 170 q 471 170 475 160 q 479 150 479 141 q 479 112 469 94 q 459 77 422 49 q 417 45 412 41 q 409 39 392 28 l 375 19 l 359 10 q 302 -20 248 -20 q 229 -20 209 -17 q 166 -11 146 -2 q 125 8 97 34 q 75 55 65 72 q 55 88 40 130 q 34 148 32 160 q 29 173 29 192 z"},"!":{"x_min":0,"x_max":267,"ha":267,"o":"m 73 546 l 76 662 l 78 720 l 79 725 l 82 736 q 91 765 99 779 q 107 793 120 803 l 131 810 q 146 819 161 819 q 190 819 195 795 l 198 781 l 202 754 l 197 725 l 194 648 l 193 641 l 185 549 l 182 515 q 182 432 180 396 q 178 361 176 319 q 177 239 177 229 q 177 219 176 218 q 171 215 169 212 q 157 197 139 193 q 112 189 98 208 q 85 227 78 282 q 76 295 74 330 q 73 364 73 419 z m 65 53 q 65 82 82 108 q 95 130 110 139 q 124 148 141 146 q 161 146 173 131 q 185 116 194 80 q 196 75 196 70 q 196 65 196 60 q 196 16 186 2 q 176 -12 145 -17 q 141 -18 132 -18 q 101 -18 83 1 q 65 20 65 53 z"},"/":{"x_min":0,"x_max":678,"ha":678,"o":"m 22 0 q 20 8 20 12 q 20 29 32 52 q 45 75 78 118 l 129 184 l 158 222 l 236 325 l 271 371 l 315 428 l 322 437 l 392 532 l 449 608 l 516 693 q 549 736 567 755 q 585 774 602 784 q 609 788 617 788 q 641 788 652 756 q 655 745 655 737 q 655 718 636 696 l 584 637 l 489 521 l 458 483 l 392 404 l 338 339 l 308 303 l 218 198 q 209 188 186 155 q 156 113 137 86 l 95 32 q 76 8 62 -19 q 59 -25 49 -26 q 29 -28 22 0 z"},"6":{"x_min":0,"x_max":696,"ha":696,"o":"m 54 232 q 54 279 60 316 q 65 354 88 427 l 96 451 l 101 464 l 108 484 q 124 522 141 548 q 158 574 199 621 l 214 639 l 224 648 q 262 687 311 712 q 384 750 439 750 q 455 750 463 749 l 475 747 l 488 744 q 545 734 581 704 q 599 689 610 676 q 620 664 623 655 q 626 647 622 640 q 619 632 610 629 q 603 627 594 630 q 584 634 571 643 q 536 667 499 667 q 464 667 411 647 q 398 642 388 638 q 379 634 369 629 q 335 610 314 593 q 294 576 264 540 l 254 526 q 208 465 196 444 q 184 422 189 412 q 194 410 196 410 l 261 431 q 283 438 296 441 q 310 444 336 444 q 348 446 362 446 q 375 446 382 446 q 419 446 450 439 q 480 432 512 415 q 563 390 589 362 q 615 335 632 290 q 642 263 642 225 q 642 198 636 168 q 619 97 553 49 q 535 35 486 12 l 467 4 l 458 0 q 435 -9 408 -14 q 380 -20 356 -20 q 328 -20 311 -18 q 294 -17 275 -13 q 205 3 168 26 q 131 49 99 96 q 77 128 66 160 q 54 193 54 232 z m 218 65 q 255 42 283 42 q 303 42 320 46 q 336 50 346 52 q 357 55 370 59 q 384 63 396 69 q 481 106 515 164 q 544 213 546 232 q 548 251 548 258 q 549 266 549 270 q 549 337 486 365 q 473 370 466 372 q 458 373 445 373 l 428 373 l 419 373 q 391 373 364 368 q 338 362 301 349 q 244 329 213 309 l 209 306 l 190 292 q 171 278 163 265 q 155 252 150 225 l 148 203 l 150 184 q 157 138 172 111 q 188 84 218 65 z"},"r":{"x_min":0,"x_max":378,"ha":378,"o":"m -7 442 q -9 454 -9 457 q -9 468 3 476 q 15 483 56 497 l 83 505 q 98 508 111 508 q 140 508 154 493 q 168 478 168 453 q 167 441 167 436 q 167 420 173 420 l 179 422 l 215 462 q 224 473 244 484 q 264 495 286 495 q 311 495 343 475 q 390 444 390 403 q 390 392 387 376 q 384 360 379 340 l 366 300 q 348 254 325 254 q 312 254 298 267 q 280 283 280 325 q 280 333 282 357 l 286 378 q 294 409 296 421 q 298 433 296 437 q 293 447 283 441 q 271 434 261 421 l 241 394 l 238 390 q 214 354 199 300 l 199 296 l 188 239 q 175 171 175 139 q 175 119 180 108 q 186 96 198 89 l 228 79 l 247 69 q 261 58 261 42 q 261 24 246 12 q 237 5 222 0 q 207 -5 179 -5 l 144 -8 l 119 -10 l 110 -11 l 51 -15 q 46 -16 44 -15 q 37 -13 22 1 l 10 13 q -2 30 -2 42 q -2 63 42 76 q 59 81 74 81 q 76 81 76 94 q 76 111 76 130 q 75 148 75 167 q 75 178 75 185 q 75 223 74 248 q 73 274 72 297 q 72 314 73 321 q 73 323 75 342 q 77 362 77 373 q 77 392 58 396 l 40 396 q 31 394 14 412 q -4 429 -7 442 z"},"2":{"x_min":0,"x_max":697,"ha":697,"o":"m 212 110 q 220 115 228 115 l 253 112 q 258 111 269 111 q 284 111 302 114 q 321 116 371 126 q 398 132 423 135 q 448 138 460 138 l 491 136 q 517 136 522 139 q 528 143 536 165 l 538 170 l 544 195 l 555 222 q 567 251 570 269 q 572 287 590 281 q 600 278 608 268 q 615 257 619 237 q 621 233 621 224 l 620 202 l 620 181 l 604 96 q 598 61 592 52 q 585 44 561 39 l 522 40 q 499 40 467 37 q 435 34 385 25 l 290 7 l 252 0 l 185 -14 q 160 -19 149 -19 q 136 -19 127 -14 q 118 -10 104 4 q 78 30 78 49 q 78 78 154 154 l 198 208 l 286 299 q 339 354 380 400 q 414 437 439 470 q 477 519 500 559 q 520 594 525 614 q 527 620 527 632 q 527 669 494 669 q 482 669 471 666 q 460 663 438 655 q 428 651 411 642 q 394 633 368 618 l 342 604 l 340 602 q 324 593 304 577 q 283 561 257 538 l 250 532 l 200 486 l 156 448 q 137 432 124 432 q 110 432 91 450 q 72 467 72 477 q 72 490 114 538 q 123 548 137 562 q 166 590 196 619 q 200 623 217 638 q 234 653 252 667 q 315 715 356 735 q 398 755 435 755 q 472 755 521 733 q 532 729 544 722 q 549 720 562 711 q 597 687 610 660 q 623 634 623 593 q 623 560 583 484 q 567 455 552 437 l 546 430 l 532 415 l 516 394 q 510 384 483 357 q 470 344 428 303 l 359 238 l 329 210 l 297 182 q 289 174 276 164 q 264 153 249 142 l 229 128 l 224 125 z"},"9":{"x_min":0,"x_max":696,"ha":696,"o":"m 54 524 q 63 622 142 679 q 163 695 209 716 l 228 724 l 237 728 q 262 737 288 743 q 314 749 340 749 q 385 749 420 741 q 491 725 528 702 q 565 679 597 632 q 622 595 632 557 q 642 519 642 462 q 642 413 607 301 l 600 277 l 595 264 l 587 244 q 569 202 554 179 q 539 156 496 107 l 481 89 l 472 80 q 432 40 384 16 q 312 -22 259 -22 q 252 -22 244 -21 q 236 -20 232 -20 l 220 -19 l 207 -16 q 150 -6 114 24 q 96 39 86 52 q 75 64 72 73 q 67 92 85 99 q 92 101 102 98 q 111 94 124 85 q 159 61 196 61 q 231 61 284 81 q 297 86 306 90 q 316 94 326 99 q 360 118 380 135 q 401 152 431 188 l 441 202 q 487 263 499 284 q 511 306 506 316 q 501 318 499 318 l 434 297 q 409 288 360 284 q 348 283 334 282 q 321 282 314 282 q 276 282 246 289 q 215 296 183 313 q 132 338 106 366 q 81 393 64 438 q 53 468 53 500 q 53 515 54 524 z m 250 355 l 267 355 l 276 355 q 304 355 330 360 q 357 366 394 379 q 451 399 482 419 l 487 422 l 505 436 q 524 450 532 463 q 540 476 545 504 q 547 518 547 526 q 547 534 546 544 q 544 555 540 572 q 531 607 517 627 q 503 647 477 663 q 440 686 412 686 q 392 686 376 682 q 359 678 348 676 q 336 673 324 669 q 312 665 300 659 q 214 621 180 564 q 146 507 146 468 q 146 428 160 404 q 175 379 209 363 q 221 358 230 356 q 238 355 250 355 z"}," ":{"x_min":0,"x_max":290,"ha":290,"o":""},"I":{"x_min":0,"x_max":285,"ha":285,"o":"m -7 672 q -7 686 7 702 q 14 709 30 714 q 47 720 91 729 q 135 738 151 738 q 181 741 200 741 q 221 741 232 738 q 244 734 254 725 l 258 722 l 266 712 q 286 686 286 667 q 286 654 277 650 l 263 645 l 213 633 q 203 631 198 602 q 194 573 194 493 l 195 377 l 197 267 l 197 258 l 198 232 l 200 185 l 201 145 q 201 132 202 123 q 202 114 205 111 l 239 102 q 252 99 260 92 q 269 86 272 77 q 281 53 281 40 q 281 18 224 1 l 202 -4 l 199 -5 l 185 -7 l 179 -8 l 129 -18 l 90 -24 q 84 -24 76 -25 q 69 -26 63 -26 q 47 -26 38 -18 q 30 -9 14 20 q 8 31 8 40 q 8 60 45 73 l 51 76 l 76 88 q 89 95 92 99 l 90 135 l 92 171 l 87 232 l 86 238 l 87 360 q 87 377 84 419 q 82 461 82 482 q 82 543 80 561 q 79 579 77 601 q 71 608 63 610 l 46 613 q 38 614 31 620 q 24 626 13 637 q -7 657 -7 672 z"},"H":{"x_min":0,"x_max":701,"ha":701,"o":"m -7 679 q -3 689 10 698 q 23 706 55 715 l 83 722 l 115 728 l 138 733 q 180 742 201 742 q 227 742 244 727 q 257 716 264 701 q 272 686 272 674 q 272 656 258 647 q 250 641 236 636 l 203 624 q 199 623 197 610 q 195 596 195 551 l 195 514 l 195 507 l 191 479 l 191 411 l 192 379 l 193 359 q 193 344 194 341 q 196 335 205 335 q 215 335 297 355 q 309 358 333 362 q 375 369 391 371 l 476 380 l 481 381 q 497 381 503 388 q 509 395 509 415 q 509 435 503 477 q 501 488 500 498 q 499 508 499 522 q 499 533 500 544 q 500 546 504 578 q 509 609 509 628 q 509 652 499 657 l 476 662 q 462 664 442 681 q 429 693 422 704 q 416 716 416 728 q 416 743 427 751 l 446 763 q 468 774 476 775 l 480 776 l 495 779 l 499 779 l 529 789 q 543 793 549 793 q 566 795 580 796 q 593 798 610 798 q 635 798 648 792 q 660 786 665 772 q 670 758 675 744 q 680 729 680 721 q 680 710 655 698 l 633 687 l 623 680 q 614 667 612 653 q 611 639 611 567 l 610 449 l 610 420 l 611 324 l 610 236 l 609 161 q 609 128 612 124 q 616 119 645 119 q 655 119 668 104 q 682 90 685 67 q 688 47 674 37 l 655 31 l 639 23 l 616 14 q 587 6 558 0 q 529 -6 505 -6 q 481 -6 472 3 q 432 46 432 64 q 432 79 462 91 l 475 95 q 497 98 501 101 q 505 104 507 120 q 507 121 505 150 q 503 178 503 206 q 500 236 500 250 q 500 260 502 270 q 503 272 498 274 q 490 277 475 277 q 448 277 438 276 q 415 271 403 270 l 348 262 l 344 261 q 292 251 258 239 q 224 227 217 224 q 197 214 197 184 q 197 174 198 148 q 199 122 199 113 q 199 74 200 70 q 202 64 215 61 l 233 60 q 239 60 246 56 q 252 53 263 43 q 282 24 282 8 q 282 -13 250 -30 q 234 -38 220 -44 q 205 -49 193 -51 l 189 -52 l 161 -54 l 129 -60 q 112 -63 99 -63 q 76 -63 56 -49 l 47 -40 q 28 -20 28 -4 q 28 18 70 34 l 91 41 q 97 43 97 65 q 97 84 91 134 q 89 151 88 168 q 87 186 87 239 l 85 322 l 84 360 l 83 418 l 82 467 l 80 505 l 78 560 q 78 583 77 591 q 76 595 74 599 l 70 602 l 44 607 q 31 611 22 617 q 14 623 10 629 q -14 657 -7 679 z"},"4":{"x_min":0,"x_max":698,"ha":698,"o":"m 46 285 q 47 294 58 312 q 69 329 111 389 q 128 413 148 440 q 169 466 200 505 q 269 589 373 692 l 377 697 l 396 715 q 420 738 447 738 q 454 738 464 736 q 474 735 488 729 q 517 712 526 704 q 535 697 542 685 q 544 682 542 654 q 540 626 540 536 q 540 472 536 437 q 531 409 530 402 q 524 364 524 350 q 524 336 530 332 q 536 327 556 324 l 560 323 l 593 323 q 610 323 632 314 q 653 304 653 280 q 653 271 647 263 q 636 245 607 239 l 595 237 l 592 238 l 561 245 q 549 247 545 247 q 535 247 528 242 l 524 237 l 522 149 q 522 128 522 122 q 522 108 524 105 q 526 103 538 101 l 542 101 l 556 101 q 581 101 599 74 l 604 64 q 610 50 610 41 q 610 20 547 1 l 515 -7 l 499 -11 l 464 -17 q 447 -20 434 -20 q 410 -20 387 -7 q 381 -4 371 6 q 354 25 354 38 q 354 57 397 75 l 425 84 q 426 91 426 112 q 427 132 427 158 l 426 201 l 426 212 q 428 221 428 223 q 428 226 407 226 l 334 226 l 320 224 l 315 224 l 220 207 l 195 202 l 171 199 l 166 198 l 136 190 q 123 186 113 186 q 102 186 92 194 q 83 201 67 223 l 57 239 q 51 253 48 266 q 45 279 46 285 z m 204 308 l 277 318 l 282 319 l 304 320 l 324 322 l 385 327 l 407 325 q 422 326 425 333 q 427 338 427 369 l 427 409 l 429 506 q 433 557 433 588 q 433 617 430 623 q 425 625 415 616 q 405 607 360 558 l 288 473 l 226 395 q 194 355 184 340 q 174 324 168 304 l 196 307 z"},"D":{"x_min":0,"x_max":797,"ha":797,"o":"m 0 53 q 0 67 7 73 q 14 79 37 85 l 50 88 l 70 92 q 85 95 89 98 q 94 101 94 112 q 94 120 92 134 q 90 147 89 158 l 90 305 l 89 449 q 89 478 89 512 q 89 546 90 584 q 90 609 86 614 l 58 624 l 43 632 q 26 644 18 660 q 10 677 12 691 q 15 716 22 722 q 28 727 58 731 l 72 732 l 97 734 l 135 742 q 196 756 329 756 q 401 756 464 741 q 543 722 596 692 q 689 640 728 568 q 768 495 768 432 q 768 362 712 274 q 684 232 637 183 q 572 118 502 80 q 425 38 296 2 q 240 -13 203 -20 q 166 -28 110 -28 l 91 -29 l 75 -30 q 57 -30 44 -23 q 32 -16 20 2 q 7 20 4 30 q 0 41 0 53 z m 322 124 l 332 128 q 399 154 454 192 q 509 230 547 267 q 585 304 616 350 q 647 397 659 426 q 671 455 671 478 q 671 487 670 492 q 665 533 646 556 q 627 579 578 604 l 556 615 q 510 635 470 642 q 430 648 377 648 l 326 642 q 247 632 230 622 q 214 611 214 570 l 211 506 l 210 483 l 205 325 l 206 166 q 202 129 202 117 q 202 112 204 108 q 213 96 225 96 q 239 96 295 115 z"},"0":{"x_min":0,"x_max":696,"ha":696,"o":"m 22 275 l 22 302 q 22 370 33 426 q 44 482 64 528 l 66 533 l 93 587 l 101 602 l 108 618 q 110 623 115 630 q 126 645 158 680 q 189 714 216 732 q 244 750 272 754 q 307 761 316 759 l 320 759 l 343 755 l 370 755 q 401 755 439 742 q 477 728 524 697 q 542 686 559 673 q 583 655 592 644 l 594 641 l 611 615 q 614 610 617 606 q 622 599 632 588 q 634 585 639 575 q 649 554 656 537 q 662 520 668 493 q 673 466 673 433 l 674 419 l 674 410 q 674 371 663 298 l 659 272 l 656 262 q 649 227 632 186 q 609 132 582 98 q 556 63 518 35 l 504 24 l 495 18 q 470 1 440 -10 q 409 -20 367 -24 q 360 -24 350 -25 q 340 -26 330 -26 q 289 -26 245 -14 q 201 -1 167 22 q 86 74 54 128 q 22 182 22 275 z m 186 101 q 207 74 228 62 q 248 50 274 46 q 301 42 323 42 q 349 42 383 56 l 402 65 q 424 77 444 95 q 464 113 484 139 l 493 151 l 496 156 q 506 170 512 187 l 516 197 l 524 219 q 536 252 542 274 q 547 295 551 324 q 555 352 558 383 q 560 414 560 439 q 560 475 558 496 q 555 516 547 543 q 533 591 523 609 q 513 627 484 651 q 464 668 454 672 q 444 675 397 681 q 392 682 381 682 q 354 682 327 670 q 300 658 264 628 q 243 610 228 592 q 214 573 198 541 l 185 508 l 174 473 l 172 469 l 160 442 l 159 438 q 158 435 154 415 q 146 377 143 355 q 136 306 136 264 q 136 221 144 190 q 153 159 163 138 q 173 116 186 101 z"},"F":{"x_min":0,"x_max":544,"ha":544,"o":"m -7 660 q -5 673 4 682 q 14 690 36 696 l 55 701 l 59 701 l 85 703 l 143 714 l 150 715 l 226 725 l 238 727 l 267 731 l 373 738 q 398 738 428 742 q 457 746 479 749 l 489 749 q 511 749 520 740 q 530 731 535 706 l 535 625 q 535 533 537 523 q 531 516 522 512 q 514 507 506 507 q 493 507 474 521 q 467 527 464 534 q 462 539 453 569 l 441 612 q 439 628 436 644 q 434 660 422 660 q 414 660 394 657 l 376 654 l 329 643 l 298 636 l 270 629 q 217 621 206 604 q 194 587 194 510 l 194 458 l 195 379 l 195 371 q 195 350 203 350 q 205 350 215 352 l 298 369 q 370 387 408 387 q 437 387 454 378 q 471 368 480 350 q 489 331 489 322 q 489 311 467 305 q 457 302 425 297 l 411 295 l 375 289 l 372 288 l 339 278 q 332 276 314 272 q 296 267 279 263 l 249 257 q 219 252 210 245 q 201 238 199 219 l 199 149 q 199 121 200 117 q 201 111 211 107 l 242 103 q 247 102 251 101 q 260 98 268 88 l 273 80 q 285 57 285 44 q 285 28 265 19 l 250 13 l 239 10 q 201 -3 175 -8 l 171 -9 l 141 -14 l 115 -17 q 107 -17 98 -18 q 89 -19 86 -19 q 71 -19 64 -14 q 56 -10 41 6 l 27 23 q 22 30 22 38 q 22 60 45 71 q 68 82 93 86 q 95 86 95 98 q 95 115 94 134 q 94 153 94 174 q 94 187 94 194 l 92 224 l 88 300 l 86 331 q 86 352 85 382 q 84 412 84 422 q 84 430 84 439 q 86 449 86 454 q 93 514 93 543 q 93 570 83 577 l 57 585 l 41 591 q 25 601 18 610 q 3 627 -2 640 q -8 652 -7 660 z"},"`":{"x_min":0,"x_max":217,"ha":217,"o":"m 44 666 l 152 623 q 169 617 177 599 q 180 590 180 582 q 180 553 154 542 q 146 539 137 539 q 129 539 120 542 l 12 585 q -5 591 -13 609 q -17 617 -17 627 q -17 654 9 665 q 17 669 28 669 q 36 669 44 666 z"},"k":{"x_min":0,"x_max":542,"ha":542,"o":"m -14 708 q -9 720 4 726 q 17 731 55 738 q 68 740 80 742 q 93 743 108 743 q 129 743 140 741 q 151 739 161 734 q 171 728 174 718 q 178 709 178 686 q 178 669 177 625 q 176 581 176 560 q 177 546 178 499 q 178 452 178 407 q 178 395 178 390 q 178 380 178 376 q 178 368 178 364 q 178 346 178 330 q 177 313 177 298 l 178 286 q 183 285 188 287 l 257 351 q 292 383 292 390 q 292 394 276 420 q 272 429 273 435 q 275 450 288 456 q 301 462 349 468 l 356 469 l 365 468 l 373 468 l 391 472 l 426 478 q 495 478 507 450 q 519 423 519 407 q 519 387 484 384 l 474 383 l 452 382 q 442 382 433 380 q 424 377 418 373 q 412 370 394 354 l 380 341 l 368 330 l 365 328 l 341 310 q 319 294 319 283 q 319 262 474 112 l 495 93 l 511 79 l 514 77 l 535 65 q 542 63 542 51 q 542 40 534 28 l 524 16 q 506 -3 488 -3 q 470 -3 441 18 l 432 25 l 412 46 l 405 52 l 335 114 l 258 183 l 249 191 l 244 196 q 236 202 230 202 q 222 202 201 180 q 180 158 178 154 q 176 151 172 129 q 169 107 169 99 q 169 86 189 79 l 195 77 l 210 73 q 214 72 215 72 q 219 71 225 65 l 236 53 q 243 42 243 30 q 243 10 225 3 l 203 -3 q 125 -18 102 -18 q 95 -17 92 -17 q 57 -13 45 -9 q 33 -5 25 4 q 5 28 5 44 q 5 60 32 68 l 39 70 l 59 74 q 73 77 77 84 q 81 91 81 115 q 81 135 80 155 q 80 175 80 194 q 80 205 80 211 q 80 215 82 250 q 83 285 83 323 q 83 336 83 349 q 79 386 76 421 l 74 448 q 70 482 68 510 q 66 537 66 566 q 66 609 72 645 q 70 648 68 650 l 34 646 q 18 644 3 656 l -6 665 q -16 681 -16 696 q -16 702 -14 708 z"},"u":{"x_min":0,"x_max":585,"ha":585,"o":"m 0 399 q 0 426 44 442 l 66 449 l 74 452 l 84 454 l 110 459 q 128 462 141 462 q 182 462 190 417 l 183 282 q 183 267 183 250 q 183 233 184 215 l 186 193 l 188 169 l 191 151 q 199 105 216 92 q 233 80 282 80 q 301 80 334 95 l 338 96 l 368 110 q 392 121 400 130 q 407 140 411 167 q 412 170 412 181 q 412 197 412 215 q 411 233 411 253 q 411 265 411 272 l 411 378 q 412 384 395 390 l 370 391 q 367 390 363 392 q 355 396 342 409 q 326 426 326 446 q 326 463 339 470 l 368 482 l 405 496 q 423 501 427 502 q 435 504 442 504 q 445 504 453 502 q 496 491 505 470 q 514 448 514 351 l 514 273 q 514 225 506 169 q 504 156 502 146 q 501 137 501 126 q 501 113 506 108 q 510 104 523 101 l 527 100 l 541 100 q 548 100 562 92 q 575 85 580 71 q 586 57 586 47 q 586 30 558 18 q 463 -21 450 -21 q 438 -21 429 -10 q 421 3 416 10 l 411 18 q 410 21 403 20 q 396 19 378 13 l 346 4 q 326 0 302 0 q 254 0 201 22 q 128 51 104 86 q 75 128 75 221 q 75 234 74 247 q 74 260 74 273 q 74 283 74 292 q 74 300 75 308 q 75 324 70 329 q 68 332 46 342 l 31 351 q 14 363 7 374 q 0 386 0 399 z"},"U":{"x_min":0,"x_max":711,"ha":711,"o":"m 620 647 q 618 641 618 637 q 619 627 620 600 q 620 572 620 548 l 621 415 l 622 329 l 622 313 l 621 281 q 621 230 615 200 q 609 170 595 136 q 578 95 566 76 q 554 57 536 39 q 505 10 458 -7 q 426 -17 411 -20 q 396 -23 360 -23 q 316 -23 297 -20 q 278 -18 249 -7 q 234 0 230 2 q 223 5 212 13 q 171 42 152 64 q 133 87 118 125 q 103 163 95 202 q 83 260 83 339 q 83 374 80 434 q 77 494 77 514 l 78 546 q 78 559 78 564 q 78 579 63 582 q 48 586 36 588 q 24 590 13 600 l 8 606 q -17 638 -17 655 q -17 672 12 682 l 56 694 q 155 714 202 714 q 229 714 244 708 q 258 702 266 690 q 275 679 279 666 q 283 654 283 646 q 283 622 260 614 q 252 611 242 608 q 231 605 205 600 q 201 596 200 593 q 197 589 196 570 q 195 551 195 446 l 195 325 q 195 308 195 294 q 195 279 197 259 q 197 186 206 150 q 212 126 230 97 q 249 68 270 56 q 290 43 320 43 q 334 43 342 44 q 424 51 462 112 q 505 181 505 337 l 506 425 l 508 514 q 508 599 501 616 q 494 633 451 637 q 438 637 422 657 l 413 671 q 405 689 405 696 q 405 708 426 716 q 446 725 509 742 l 525 746 l 559 754 q 574 757 594 760 q 614 764 632 764 q 655 764 668 757 q 682 750 692 732 q 702 715 702 702 q 702 682 680 670 l 650 659 z"},"o":{"x_min":0,"x_max":572,"ha":572,"o":"m 29 185 l 28 210 q 28 260 36 292 q 45 325 63 356 q 100 420 153 450 q 182 467 205 478 q 238 494 267 494 l 285 496 l 298 497 q 313 497 329 496 q 345 495 360 492 q 411 481 439 465 q 467 449 493 414 q 523 375 536 319 q 543 291 543 259 q 543 207 519 145 q 491 73 444 33 q 398 -7 337 -14 l 315 -16 l 306 -16 l 285 -15 l 262 -14 l 255 -14 l 249 -13 l 225 -10 q 189 -4 174 1 q 158 6 130 22 q 111 33 94 49 q 61 79 45 112 q 29 144 29 185 z m 157 108 q 175 80 194 66 q 213 52 241 47 q 248 45 262 45 q 287 45 319 57 q 375 80 404 133 q 432 186 432 274 q 432 300 426 324 q 417 364 403 386 q 389 408 365 421 q 334 438 308 438 q 271 438 226 403 l 204 385 q 145 326 132 233 l 130 205 q 130 183 143 138 q 145 130 148 122 q 152 115 157 108 z"},"N":{"x_min":0,"x_max":734,"ha":734,"o":"m 0 687 q 2 700 10 707 q 18 714 43 720 l 123 727 l 127 727 l 150 731 q 165 733 172 732 q 208 732 226 721 q 245 710 258 682 l 263 670 l 267 659 l 271 643 l 285 618 l 328 525 l 348 482 l 371 431 q 386 399 420 333 q 465 246 466 243 l 498 187 q 506 175 508 172 q 512 167 520 161 q 525 158 530 158 q 538 158 541 167 q 544 176 544 194 q 544 207 544 220 q 543 234 543 248 q 543 255 543 259 l 542 300 q 542 428 544 478 q 547 529 552 552 q 556 574 558 584 q 560 595 560 604 q 560 618 552 621 q 543 624 516 624 q 509 624 500 630 q 492 636 483 653 q 470 676 470 687 q 470 701 488 710 q 506 719 545 729 l 551 731 l 575 739 q 588 744 599 744 q 623 747 642 747 q 683 747 704 734 q 725 722 731 698 q 734 683 734 675 q 734 656 707 649 l 680 642 q 655 638 649 628 q 643 617 643 570 q 643 559 645 469 q 647 379 647 293 q 647 279 646 256 q 646 233 646 201 q 646 188 646 181 q 646 143 646 108 q 645 74 644 42 q 644 30 645 25 q 646 21 641 16 q 636 11 621 0 q 599 -16 573 -16 q 541 -16 522 3 q 503 22 440 117 l 426 139 l 414 159 l 362 249 l 299 359 l 292 371 l 229 495 l 214 526 l 201 552 q 200 554 194 554 q 189 550 184 525 q 180 500 180 455 q 180 430 180 406 q 183 382 184 368 q 186 353 187 330 q 188 307 188 287 q 188 232 182 187 q 175 142 175 122 q 175 105 180 98 q 185 91 196 88 l 214 87 q 226 87 241 75 q 256 63 264 46 l 267 38 q 270 29 270 20 q 270 -5 239 -17 q 208 -29 131 -29 q 109 -29 101 -29 q 91 -28 88 -28 q 53 -21 38 -13 q 23 -5 23 7 q 20 23 20 29 q 19 36 19 44 q 19 57 26 62 q 33 68 54 74 q 76 81 82 89 q 87 97 87 122 q 87 136 86 149 q 86 162 86 175 q 86 181 86 185 l 86 477 q 86 494 86 506 q 86 518 86 524 q 86 586 83 594 q 75 597 66 600 l 53 605 l 46 608 q 34 611 22 627 l 17 635 q 9 651 4 665 q -1 679 0 687 z"},"G":{"x_min":0,"x_max":704,"ha":704,"o":"m 30 188 l 30 237 l 31 268 l 31 273 q 36 313 57 381 l 68 410 l 69 413 l 96 473 l 103 489 l 110 504 q 114 514 128 537 q 141 560 163 589 l 203 637 q 232 668 258 690 q 285 713 307 726 l 316 731 l 337 741 q 369 756 388 756 q 404 756 428 745 q 437 742 443 736 q 467 720 474 720 q 486 720 498 754 l 499 760 q 501 768 513 768 q 527 768 550 757 l 564 749 q 583 739 585 734 q 588 727 588 696 l 591 615 l 589 549 l 589 544 l 586 512 l 582 485 q 577 462 550 462 q 539 462 530 466 q 506 476 496 499 q 486 522 486 580 l 484 589 q 472 633 459 647 q 446 661 420 659 q 407 659 386 643 q 365 627 323 583 q 298 557 274 522 q 246 481 207 410 l 191 376 l 185 363 l 176 342 q 136 237 136 166 q 136 113 151 92 q 166 70 205 63 l 229 59 l 235 58 q 270 58 309 66 q 348 74 403 96 q 415 101 425 106 q 439 114 445 117 l 481 143 q 503 162 514 178 q 524 194 524 207 q 524 245 485 245 q 465 245 429 236 l 415 233 l 363 222 l 331 216 l 310 209 q 299 205 286 220 q 272 235 272 261 q 272 298 296 314 q 324 333 417 350 q 480 362 523 366 q 566 371 598 371 q 652 371 668 361 q 684 351 700 308 q 704 299 704 291 q 704 257 687 257 q 685 257 675 259 q 652 264 641 264 q 617 264 615 255 l 626 228 l 628 220 q 634 190 634 177 q 634 160 621 135 l 612 119 l 605 106 q 580 62 526 28 q 472 -7 390 -27 q 369 -32 346 -35 q 323 -38 301 -38 q 232 -38 176 -11 q 119 16 83 65 q 60 97 46 128 q 33 160 30 188 z"},"q":{"x_min":0,"x_max":605,"ha":605,"o":"m 29 173 q 29 244 99 346 q 138 404 178 436 q 219 469 269 484 q 336 503 360 503 q 370 503 383 500 q 396 497 412 492 l 428 484 q 429 483 433 486 q 438 490 451 506 q 453 509 462 509 q 480 509 496 507 q 511 505 539 502 q 567 500 582 495 q 597 490 607 475 l 614 462 q 620 448 620 437 q 620 407 584 407 q 550 407 544 392 q 539 377 539 280 l 532 164 l 530 98 q 530 -99 534 -158 q 537 -217 546 -217 q 553 -214 560 -211 q 567 -213 574 -218 q 581 -223 594 -238 q 607 -253 607 -266 q 607 -276 600 -280 q 587 -288 576 -291 l 548 -301 l 544 -303 l 515 -310 l 486 -313 q 475 -315 467 -315 q 459 -315 456 -315 q 443 -315 431 -309 l 423 -303 q 399 -285 399 -275 q 399 -267 415 -245 q 424 -234 424 -214 q 424 -190 411 -109 q 409 -96 408 -84 q 407 -72 407 -53 l 408 -40 l 408 -31 q 409 -27 409 -24 q 409 -20 409 -19 q 409 -12 407 -10 l 403 -7 l 297 -21 q 279 -23 270 -23 q 226 -23 160 1 q 139 9 127 16 q 115 23 98 37 q 58 71 44 100 q 29 130 29 173 z m 250 55 q 286 55 304 58 q 321 61 349 74 l 362 81 q 399 101 404 112 q 410 122 410 170 q 410 198 411 226 q 412 253 413 281 l 418 335 l 419 348 l 419 376 q 419 389 404 398 q 390 408 367 408 q 359 408 351 408 q 343 405 340 404 q 321 397 303 384 q 285 370 251 336 q 208 293 183 251 q 158 209 148 182 q 138 155 138 133 q 138 122 142 104 q 147 87 163 76 q 179 65 223 58 z"},"d":{"x_min":0,"x_max":579,"ha":579,"o":"m 29 142 q 27 158 27 169 q 27 189 34 228 q 42 267 59 301 q 76 335 114 382 q 135 409 161 433 q 216 483 263 503 q 302 519 329 519 q 348 519 365 509 l 387 494 l 390 500 q 391 502 390 532 q 388 561 388 610 l 388 665 q 383 669 377 671 q 373 672 364 673 q 354 674 343 674 q 335 675 330 677 q 322 680 314 686 q 311 687 302 696 q 289 712 289 726 q 289 746 311 754 l 324 757 l 334 760 l 366 767 q 404 774 425 774 q 442 774 455 769 q 478 759 486 746 q 494 732 494 701 l 491 594 l 491 458 l 490 390 l 490 326 l 491 262 q 491 259 490 240 q 488 220 488 199 l 491 166 q 494 137 494 123 q 494 112 492 100 q 495 98 498 97 q 519 89 561 89 q 570 89 578 74 q 585 58 587 42 q 590 18 571 8 q 552 -1 471 -14 q 457 -17 447 -17 q 432 -17 422 -10 q 412 -3 401 13 l 396 22 q 387 23 375 20 l 340 6 l 303 -5 q 280 -9 254 -9 q 247 -9 243 -9 q 238 -9 233 -9 q 226 -7 222 -7 q 156 1 114 24 q 72 48 49 87 q 41 102 36 114 q 32 125 29 142 z m 312 90 l 336 101 q 375 121 383 133 q 391 145 391 181 l 391 207 l 391 220 l 392 318 l 385 373 q 378 429 343 429 q 334 429 318 422 q 294 410 274 394 q 255 377 221 340 q 212 330 204 320 q 196 310 187 297 q 158 255 147 236 q 127 203 122 186 l 121 182 l 117 156 q 113 132 115 126 q 120 97 147 84 q 174 70 233 70 q 262 70 312 90 z"},"1":{"x_min":0,"x_max":697,"ha":697,"o":"m 207 671 q 211 685 232 699 q 257 716 305 733 l 337 741 q 345 741 354 742 q 363 743 365 743 q 371 743 376 742 q 377 742 384 739 l 398 727 l 401 724 l 413 717 q 430 707 430 675 l 428 641 l 426 600 l 421 474 l 413 296 q 413 262 412 226 q 412 189 411 151 q 411 107 418 96 q 426 86 461 78 q 478 75 488 47 q 491 39 491 33 q 491 20 476 10 q 461 0 424 -8 l 400 -13 l 369 -17 l 361 -18 l 343 -19 q 287 -19 256 18 q 251 23 248 30 q 245 37 245 41 q 245 57 269 65 l 273 66 l 296 70 q 311 73 316 79 q 321 85 321 103 q 321 112 318 141 q 316 170 314 192 l 317 305 q 317 354 318 404 q 318 454 319 505 l 318 537 l 317 543 l 320 580 l 320 584 q 317 607 312 611 l 273 607 q 243 603 224 622 q 201 649 207 671 z"},"5":{"x_min":0,"x_max":698,"ha":698,"o":"m 65 78 q 70 87 77 87 q 81 87 91 82 l 97 78 l 106 72 q 110 69 128 67 q 145 65 167 65 q 199 65 220 68 q 241 70 272 78 q 317 89 352 106 q 388 124 446 165 q 456 172 473 185 q 481 191 499 206 q 522 226 522 245 q 522 268 485 286 q 478 290 467 294 q 456 299 441 303 q 421 310 398 312 q 375 314 344 314 q 300 314 270 308 q 239 301 201 285 q 190 280 178 275 q 165 270 154 270 q 134 270 98 319 q 95 323 94 327 q 92 334 92 348 q 92 390 121 669 l 123 677 q 128 694 145 699 q 162 704 231 710 l 236 711 l 279 718 l 387 728 l 443 733 l 491 738 l 538 741 q 592 741 605 736 q 618 730 618 706 l 618 674 l 617 659 l 613 602 l 609 547 l 608 529 l 607 522 q 598 493 581 493 q 571 493 556 500 q 542 507 534 534 q 525 560 525 610 l 525 615 l 526 631 q 526 645 523 648 q 520 651 503 651 q 485 651 472 651 q 450 651 377 638 l 328 630 l 269 617 q 241 611 234 604 q 228 596 219 561 l 207 515 l 206 509 l 204 501 l 199 454 q 198 449 198 444 q 198 439 198 437 q 198 423 205 422 l 243 422 l 320 414 l 326 413 l 340 413 l 359 409 l 364 408 l 388 405 q 404 402 413 399 q 436 390 452 385 q 467 380 476 376 q 479 375 500 365 q 556 337 582 311 q 630 266 630 217 q 630 163 570 104 q 552 86 528 70 q 505 55 470 40 l 447 30 l 433 26 l 430 24 l 416 16 q 411 13 404 10 q 396 8 356 -2 l 327 -9 l 292 -14 l 289 -15 l 256 -14 l 247 -15 l 220 -16 l 201 -16 q 149 -10 118 4 q 87 19 76 37 q 66 55 64 64 q 62 73 65 78 z"}}}
